<svg xmlns="http://www.w3.org/2000/svg" viewBox="0 0 1102.81 377.01"><defs><style>.cls-1{fill:#fff;}.cls-2{fill:#0386d1;}</style></defs><title>tl-illustraion-1</title><g id="Layer_2" data-name="Layer 2"><g id="Layer_1-2" data-name="Layer 1"><polygon class="cls-1" points="62.11 224.31 39.28 231.99 63.6 213.65 62.11 224.31"/><polygon class="cls-1" points="80.13 208.8 98.2 224.73 70.15 212.84 80.13 208.8"/><polygon class="cls-1" points="57.69 200.94 62.45 177.34 66.18 207.57 57.69 200.94"/><path class="cls-2" d="M66.64,377a1.91,1.91,0,0,1-1.9-1.91V215.16a1.91,1.91,0,0,1,3.81,0V375.1A1.92,1.92,0,0,1,66.64,377Z"/><path class="cls-2" d="M39.28,233.89a1.9,1.9,0,0,1-1.15-3.42l24.32-18.34a1.9,1.9,0,0,1,3,1.78L64,224.58a1.9,1.9,0,0,1-1.28,1.54l-22.83,7.67A1.8,1.8,0,0,1,39.28,233.89Zm21.8-16-11.29,8.51,10.59-3.56Z"/><path class="cls-2" d="M98.2,226.64a2,2,0,0,1-.75-.15l-28-11.9a1.9,1.9,0,0,1,0-3.51l10-4.05a1.89,1.89,0,0,1,2,.34l17.86,15.75a1.91,1.91,0,0,1-1,3.52ZM75.12,212.88l13,5.52L79.76,211Z"/><path class="cls-2" d="M66.18,209.48a1.92,1.92,0,0,1-1.18-.41l-8.49-6.63a1.91,1.91,0,0,1-.69-1.87L60.58,177a1.86,1.86,0,0,1,1.94-1.53,1.91,1.91,0,0,1,1.82,1.67L68,207a2,2,0,0,1,.1.6,1.83,1.83,0,0,1-1.92,1.91Zm-6.4-9.31,3.94,3.07-1.72-14Z"/><path class="cls-2" d="M66.64,217.06a5.71,5.71,0,1,1,0-11.42,5.53,5.53,0,0,1,2.23.46,5.71,5.71,0,0,1-2.23,11Zm0-7.61a1.9,1.9,0,0,0-1.75,1.16,1.87,1.87,0,0,0,0,1.45,1.83,1.83,0,0,0,1,1,1.9,1.9,0,1,0,1.49-3.5A2,2,0,0,0,66.64,209.45Z"/><path class="cls-2" d="M474.12,283.91a1.88,1.88,0,0,1-1.91-1.9,1.92,1.92,0,1,1,1.91,1.9Z"/><path class="cls-2" d="M472.21,274.39a1.91,1.91,0,0,1,1.91-1.9h0a1.91,1.91,0,0,1,1.9,1.9h0a1.91,1.91,0,0,1-1.9,1.91h0A1.92,1.92,0,0,1,472.21,274.39Zm0-7.61a1.92,1.92,0,0,1,1.91-1.91h0a1.91,1.91,0,0,1,1.9,1.91h0a1.91,1.91,0,0,1-1.9,1.9h0A1.91,1.91,0,0,1,472.21,266.78Z"/><path class="cls-2" d="M474.12,261.06a2,2,0,0,1-1.36-.55,1.94,1.94,0,1,1,1.36.55Z"/><rect class="cls-1" x="375.1" y="321.79" width="60.93" height="15.23"/><polygon class="cls-1" points="893.01 123.77 893.01 32.37 847.31 78.07 847.31 146.61 847.31 375.1 915.86 375.1 915.86 146.61 893.01 123.77"/><polygon class="cls-1" points="923.48 123.77 923.48 32.37 893.01 32.37 893.01 123.77 915.86 146.61 915.86 375.1 946.33 375.1 946.33 146.61 923.48 123.77"/><path class="cls-2" d="M946.33,377h-99a1.91,1.91,0,0,1-1.9-1.91v-297a1.9,1.9,0,0,1,.56-1.35L891.67,31a1.91,1.91,0,0,1,1.34-.55h30.47a1.9,1.9,0,0,1,1.9,1.9V123l22.29,22.29a1.88,1.88,0,0,1,.56,1.34V375.1A1.91,1.91,0,0,1,946.33,377Zm-97.11-3.81h95.2V147.4l-22.29-22.29a1.9,1.9,0,0,1-.56-1.35V34.27H893.8L849.22,78.86Z"/><path class="cls-2" d="M915.86,354.16H847.31a1.91,1.91,0,0,1,0-3.81h68.55a1.91,1.91,0,0,1,0,3.81Z"/><path class="cls-2" d="M915.86,346.54H847.31a1.91,1.91,0,0,1,0-3.81h68.55a1.91,1.91,0,0,1,0,3.81Z"/><path class="cls-2" d="M915.86,338.93H847.31a1.91,1.91,0,0,1,0-3.81h68.55a1.91,1.91,0,0,1,0,3.81Z"/><path class="cls-2" d="M915.86,331.31H847.31a1.91,1.91,0,0,1,0-3.81h68.55a1.91,1.91,0,0,1,0,3.81Z"/><path class="cls-2" d="M915.86,323.69H847.31a1.91,1.91,0,0,1,0-3.81h68.55a1.91,1.91,0,0,1,0,3.81Z"/><path class="cls-2" d="M915.86,316.08H847.31a1.91,1.91,0,0,1,0-3.81h68.55a1.91,1.91,0,0,1,0,3.81Z"/><path class="cls-2" d="M915.86,308.46H847.31a1.91,1.91,0,0,1,0-3.81h68.55a1.91,1.91,0,0,1,0,3.81Z"/><path class="cls-2" d="M915.86,300.84H847.31a1.9,1.9,0,0,1,0-3.8h68.55a1.9,1.9,0,0,1,0,3.8Z"/><path class="cls-2" d="M915.86,293.23H847.31a1.91,1.91,0,0,1,0-3.81h68.55a1.91,1.91,0,0,1,0,3.81Z"/><path class="cls-2" d="M915.86,285.61H847.31a1.91,1.91,0,0,1,0-3.81h68.55a1.91,1.91,0,0,1,0,3.81Z"/><path class="cls-2" d="M915.86,278H847.31a1.91,1.91,0,0,1,0-3.81h68.55a1.91,1.91,0,0,1,0,3.81Z"/><path class="cls-2" d="M915.86,270.38H847.31a1.91,1.91,0,0,1,0-3.81h68.55a1.91,1.91,0,0,1,0,3.81Z"/><path class="cls-2" d="M915.86,262.76H847.31a1.91,1.91,0,0,1,0-3.81h68.55a1.91,1.91,0,0,1,0,3.81Z"/><path class="cls-2" d="M915.86,255.15H847.31a1.91,1.91,0,0,1,0-3.81h68.55a1.91,1.91,0,0,1,0,3.81Z"/><path class="cls-2" d="M915.86,247.53H847.31a1.91,1.91,0,0,1,0-3.81h68.55a1.91,1.91,0,0,1,0,3.81Z"/><path class="cls-2" d="M915.86,239.91H847.31a1.9,1.9,0,1,1,0-3.8h68.55a1.9,1.9,0,0,1,0,3.8Z"/><path class="cls-2" d="M915.86,232.3H847.31a1.91,1.91,0,0,1,0-3.81h68.55a1.91,1.91,0,0,1,0,3.81Z"/><path class="cls-2" d="M915.86,224.68H847.31a1.91,1.91,0,0,1,0-3.81h68.55a1.91,1.91,0,0,1,0,3.81Z"/><path class="cls-2" d="M915.86,217.06H847.31a1.9,1.9,0,1,1,0-3.8h68.55a1.9,1.9,0,0,1,0,3.8Z"/><path class="cls-2" d="M915.86,209.45H847.31a1.91,1.91,0,0,1,0-3.81h68.55a1.91,1.91,0,0,1,0,3.81Z"/><path class="cls-2" d="M915.86,201.83H847.31a1.91,1.91,0,0,1,0-3.81h68.55a1.91,1.91,0,0,1,0,3.81Z"/><path class="cls-2" d="M915.86,194.22H847.31a1.91,1.91,0,0,1,0-3.81h68.55a1.91,1.91,0,0,1,0,3.81Z"/><path class="cls-2" d="M915.86,186.6H847.31a1.91,1.91,0,0,1,0-3.81h68.55a1.91,1.91,0,0,1,0,3.81Z"/><path class="cls-2" d="M915.86,179H847.31a1.9,1.9,0,1,1,0-3.8h68.55a1.9,1.9,0,0,1,0,3.8Z"/><path class="cls-2" d="M915.86,171.37H847.31a1.91,1.91,0,0,1,0-3.81h68.55a1.91,1.91,0,0,1,0,3.81Z"/><path class="cls-2" d="M915.86,163.75H847.31a1.91,1.91,0,0,1,0-3.81h68.55a1.91,1.91,0,0,1,0,3.81Z"/><path class="cls-2" d="M915.86,156.13H847.31a1.9,1.9,0,1,1,0-3.8h68.55a1.9,1.9,0,0,1,0,3.8Z"/><path class="cls-2" d="M915.86,148.52H847.31a1.91,1.91,0,0,1,0-3.81h68.55a1.91,1.91,0,0,1,0,3.81Z"/><path class="cls-2" d="M893,80h-45.7a1.91,1.91,0,0,1,0-3.81H893A1.91,1.91,0,1,1,893,80Z"/><path class="cls-2" d="M893,87.59h-45.7a1.91,1.91,0,0,1,0-3.81H893a1.91,1.91,0,1,1,0,3.81Z"/><path class="cls-2" d="M893,95.2h-45.7a1.9,1.9,0,1,1,0-3.8H893a1.9,1.9,0,1,1,0,3.8Z"/><path class="cls-2" d="M893,102.82h-45.7a1.91,1.91,0,0,1,0-3.81H893a1.91,1.91,0,1,1,0,3.81Z"/><path class="cls-2" d="M893,110.44h-45.7a1.91,1.91,0,0,1,0-3.81H893a1.91,1.91,0,1,1,0,3.81Z"/><path class="cls-2" d="M893,118.05h-45.7a1.91,1.91,0,0,1,0-3.81H893a1.91,1.91,0,1,1,0,3.81Z"/><path class="cls-2" d="M893,125.67h-45.7a1.91,1.91,0,0,1,0-3.81H893a1.91,1.91,0,1,1,0,3.81Z"/><path class="cls-2" d="M915.86,377a1.91,1.91,0,0,1-1.9-1.91V147.4l-22.29-22.29a1.9,1.9,0,0,1-.56-1.35V32.37a1.91,1.91,0,0,1,3.81,0V123l22.29,22.29a1.91,1.91,0,0,1,.55,1.34V375.1A1.91,1.91,0,0,1,915.86,377Z"/><path class="cls-2" d="M908.24,140.9H847.31a1.91,1.91,0,0,1,0-3.81h60.93a1.91,1.91,0,1,1,0,3.81Z"/><path class="cls-2" d="M900.09,133.29H847.31a1.91,1.91,0,0,1,0-3.81h52.78a1.91,1.91,0,0,1,0,3.81Z"/><path class="cls-2" d="M923.48,125.67H893a1.91,1.91,0,0,1,0-3.81h30.47a1.91,1.91,0,0,1,0,3.81Z"/><path class="cls-2" d="M946.33,148.52H915.86a1.91,1.91,0,0,1,0-3.81h30.47a1.91,1.91,0,0,1,0,3.81Z"/><path class="cls-2" d="M847.31,80a1.86,1.86,0,0,1-1.34-.56,1.89,1.89,0,0,1,0-2.69L891.67,31a1.91,1.91,0,1,1,2.69,2.7l-45.7,45.69A1.87,1.87,0,0,1,847.31,80Z"/><path class="cls-2" d="M923.48,34.27H893a1.9,1.9,0,1,1,0-3.8h30.47a1.9,1.9,0,0,1,0,3.8Z"/><rect class="cls-1" x="938.71" y="169.46" width="91.4" height="205.64"/><rect class="cls-1" x="976.79" y="177.08" width="45.7" height="198.02"/><path class="cls-2" d="M1030.12,377H969.19a1.9,1.9,0,0,1-1.9-1.9l0-205.64a1.92,1.92,0,0,1,1.91-1.91h60.93a1.91,1.91,0,0,1,1.9,1.91l0,205.64A1.91,1.91,0,0,1,1030.12,377Zm-59-3.8h57.12l0-201.83H971.06Z"/><path class="cls-2" d="M1022.49,377h-45.7a1.91,1.91,0,0,1-1.9-1.91v-198a1.9,1.9,0,0,1,1.9-1.9h45.7a1.9,1.9,0,0,1,1.9,1.9v198A1.91,1.91,0,0,1,1022.49,377ZM978.7,373.2h41.88V179H978.7Z"/><path class="cls-2" d="M1007.26,377a1.91,1.91,0,0,1-1.91-1.91v-198a1.91,1.91,0,0,1,3.81,0v198A1.91,1.91,0,0,1,1007.26,377Z"/><path class="cls-2" d="M992,377a1.91,1.91,0,0,1-1.9-1.91v-198a1.91,1.91,0,0,1,3.81,0v198A1.91,1.91,0,0,1,992,377Z"/><path class="cls-2" d="M969.17,171.37H938.71a1.91,1.91,0,0,1,0-3.81h30.46a1.91,1.91,0,1,1,0,3.81Z"/><path class="cls-2" d="M1022.49,209.45h-15.23a1.91,1.91,0,1,1,0-3.81h15.23a1.91,1.91,0,0,1,0,3.81Z"/><path class="cls-2" d="M1007.26,194.22H992a1.91,1.91,0,0,1,0-3.81h15.24a1.91,1.91,0,0,1,0,3.81Z"/><path class="cls-2" d="M992,209.45H976.79a1.91,1.91,0,0,1,0-3.81H992a1.91,1.91,0,1,1,0,3.81Z"/><path class="cls-2" d="M1022.49,239.91h-15.23a1.9,1.9,0,1,1,0-3.8h15.23a1.9,1.9,0,1,1,0,3.8Z"/><path class="cls-2" d="M1007.26,224.68H992a1.91,1.91,0,0,1,0-3.81h15.24a1.91,1.91,0,0,1,0,3.81Z"/><path class="cls-2" d="M992,239.91H976.79a1.9,1.9,0,1,1,0-3.8H992a1.9,1.9,0,1,1,0,3.8Z"/><path class="cls-2" d="M1022.49,270.38h-15.23a1.91,1.91,0,1,1,0-3.81h15.23a1.91,1.91,0,0,1,0,3.81Z"/><path class="cls-2" d="M1007.26,255.15H992a1.91,1.91,0,0,1,0-3.81h15.24a1.91,1.91,0,0,1,0,3.81Z"/><path class="cls-2" d="M992,270.38H976.79a1.91,1.91,0,0,1,0-3.81H992a1.91,1.91,0,1,1,0,3.81Z"/><path class="cls-2" d="M1022.49,300.84h-15.23a1.9,1.9,0,1,1,0-3.8h15.23a1.9,1.9,0,1,1,0,3.8Z"/><path class="cls-2" d="M1007.26,285.61H992a1.91,1.91,0,0,1,0-3.81h15.24a1.91,1.91,0,0,1,0,3.81Z"/><path class="cls-2" d="M992,300.84H976.79a1.9,1.9,0,0,1,0-3.8H992a1.9,1.9,0,1,1,0,3.8Z"/><path class="cls-2" d="M1022.49,331.31h-15.23a1.91,1.91,0,1,1,0-3.81h15.23a1.91,1.91,0,0,1,0,3.81Z"/><path class="cls-2" d="M1007.26,316.08H992a1.91,1.91,0,0,1,0-3.81h15.24a1.91,1.91,0,0,1,0,3.81Z"/><path class="cls-2" d="M992,331.31H976.79a1.91,1.91,0,0,1,0-3.81H992a1.91,1.91,0,1,1,0,3.81Z"/><path class="cls-2" d="M1022.49,361.77h-15.23a1.9,1.9,0,1,1,0-3.8h15.23a1.9,1.9,0,1,1,0,3.8Z"/><path class="cls-2" d="M1007.26,346.54H992a1.91,1.91,0,0,1,0-3.81h15.24a1.91,1.91,0,0,1,0,3.81Z"/><path class="cls-2" d="M992,361.77H976.79a1.9,1.9,0,1,1,0-3.8H992a1.9,1.9,0,1,1,0,3.8Z"/><path class="cls-2" d="M938.71,377a1.91,1.91,0,0,1-1.9-1.91V169.46a1.9,1.9,0,1,1,3.8,0V375.1A1.91,1.91,0,0,1,938.71,377Z"/><circle class="cls-1" cx="931.09" cy="337.02" r="22.85"/><path class="cls-2" d="M931.09,377a1.91,1.91,0,0,1-1.9-1.91V344.64a1.91,1.91,0,1,1,3.81,0V375.1A1.91,1.91,0,0,1,931.09,377Z"/><path class="cls-2" d="M931.09,361.77A24.75,24.75,0,1,1,955.85,337,24.77,24.77,0,0,1,931.09,361.77Zm0-45.69A20.95,20.95,0,1,0,952,337,21,21,0,0,0,931.09,316.08Z"/><path class="cls-2" d="M1068.19,377a1.91,1.91,0,0,1-1.91-1.91V238a1.91,1.91,0,1,1,3.81,0V375.1A1.91,1.91,0,0,1,1068.19,377Z"/><polygon class="cls-1" points="1076.83 223.53 1100.91 224 1071.82 233.06 1076.83 223.53"/><polygon class="cls-1" points="1054.63 232.05 1042.99 210.96 1065.39 231.62 1054.63 232.05"/><polygon class="cls-1" points="1073.11 247.02 1060.66 267.63 1067.35 237.92 1073.11 247.02"/><path class="cls-2" d="M1071.82,235a1.91,1.91,0,0,1-1.68-2.79l5-9.53a1.94,1.94,0,0,1,1.73-1l24.08.47a1.9,1.9,0,0,1,.53,3.72l-29.09,9.06A1.88,1.88,0,0,1,1071.82,235Zm6.15-9.51-2.32,4.42,13.49-4.2Z"/><path class="cls-2" d="M1054.63,234a1.89,1.89,0,0,1-1.67-1l-11.63-21.09a1.9,1.9,0,0,1,3-2.32l22.4,20.66a1.91,1.91,0,0,1-1.22,3.3l-10.76.44Zm-4.3-13.64,5.39,9.78,5-.2Z"/><path class="cls-2" d="M1060.66,269.54a2,2,0,0,1-.71-.14,1.9,1.9,0,0,1-1.15-2.18l6.69-29.72a1.9,1.9,0,0,1,3.47-.6l5.76,9.1a1.92,1.92,0,0,1,0,2l-12.45,20.62A1.92,1.92,0,0,1,1060.66,269.54Zm7.54-26.72-3.11,13.79,5.78-9.57Z"/><path class="cls-2" d="M1068.19,239.91a5.7,5.7,0,0,1-5.71-5.48,5.66,5.66,0,0,1,1.51-4.1,5.87,5.87,0,0,1,8.07-.33,5.74,5.74,0,0,1,1.84,4,5.73,5.73,0,0,1-5.71,5.94Zm0-7.62a1.93,1.93,0,0,0-1.91,2,1.92,1.92,0,0,0,.61,1.32,2,2,0,0,0,2.7-.11,1.91,1.91,0,0,0-1.4-3.2Z"/><polygon class="cls-1" points="639.66 215.04 648.75 237.35 628.92 214.21 639.66 215.04"/><polygon class="cls-1" points="623.05 198.02 637.83 178.99 627.71 207.73 623.05 198.02"/><polygon class="cls-1" points="616.61 220.91 592.75 217.63 622.7 212.02 616.61 220.91"/><path class="cls-2" d="M626.44,377a1.91,1.91,0,0,1-1.9-1.91v-160a1.91,1.91,0,0,1,3.81,0v160A1.92,1.92,0,0,1,626.44,377Z"/><path class="cls-2" d="M648.75,239.25a1.89,1.89,0,0,1-1.45-.67l-19.82-23.13a1.89,1.89,0,0,1,1.59-3.13l10.74.82a1.92,1.92,0,0,1,1.61,1.18l9,22a2,2,0,0,1,.31,1,1.9,1.9,0,0,1-1.91,1.9Zm-15.39-22.78,9.2,10.73-4.22-10.35Z"/><path class="cls-2" d="M627.71,209.63a1.89,1.89,0,0,1-1.72-1.08l-4.65-9.71a1.89,1.89,0,0,1,.21-2l14.77-19a1.9,1.9,0,0,1,3.3,1.8L629.5,208.36a1.89,1.89,0,0,1-1.69,1.27Zm-2.43-11.37,2.16,4.5,4.69-13.33Z"/><path class="cls-2" d="M616.61,222.81h-.26l-23.86-3.29a1.9,1.9,0,0,1-.09-3.75l30-5.61a1.91,1.91,0,0,1,1.92,2.95L618.18,222A1.91,1.91,0,0,1,616.61,222.81Zm-12-5.47,11.07,1.52,2.82-4.12Z"/><path class="cls-2" d="M626.44,217a5.72,5.72,0,1,1,5.71-5.72A5.72,5.72,0,0,1,626.44,217Zm0-7.62a1.91,1.91,0,1,0,1.91,1.9A1.9,1.9,0,0,0,626.44,209.42Z"/><polygon class="cls-1" points="594.45 183.81 610.43 201.83 584.04 186.6 594.45 183.81"/><polygon class="cls-1" points="573.13 173.27 580.74 150.42 580.74 180.89 573.13 173.27"/><polygon class="cls-1" points="574.66 197 551.06 201.83 577.45 186.6 574.66 197"/><path class="cls-2" d="M580.74,377a1.91,1.91,0,0,1-1.9-1.91V188.5a1.91,1.91,0,0,1,3.81,0V375.1A1.91,1.91,0,0,1,580.74,377Z"/><path class="cls-2" d="M610.42,203.74a1.94,1.94,0,0,1-.95-.26l-26.38-15.23a1.9,1.9,0,0,1,.46-3.49L594,182a1.92,1.92,0,0,1,1.92.58l15.78,17.79a1.91,1.91,0,0,1-1.19,3.4ZM589,187.25l12.25,7.07L593.8,186Z"/><path class="cls-2" d="M580.74,182.79a1.87,1.87,0,0,1-1.34-.56l-7.62-7.61a1.9,1.9,0,0,1-.46-2l7.62-22.85a1.9,1.9,0,0,1,3.71.6v30.47a1.92,1.92,0,0,1-1.18,1.76A2,2,0,0,1,580.74,182.79Zm-5.43-10,3.53,3.53V162.16Z"/><path class="cls-2" d="M551.06,203.74a1.91,1.91,0,0,1-.95-3.56L576.49,185a1.9,1.9,0,0,1,2.79,2.14L576.5,197.5a1.92,1.92,0,0,1-1.46,1.37l-23.6,4.83A2.33,2.33,0,0,1,551.06,203.74Zm23.36-13.19-12.24,7.06,10.94-2.24Z"/><path class="cls-2" d="M580.74,190.41a5.72,5.72,0,1,1,5.72-5.72A5.72,5.72,0,0,1,580.74,190.41Zm0-7.62a1.91,1.91,0,1,0,1.91,1.9A1.9,1.9,0,0,0,580.74,182.79Z"/><circle class="cls-1" cx="588.36" cy="344.64" r="15.23"/><path class="cls-2" d="M588.36,377a1.91,1.91,0,0,1-1.9-1.91V352.25a1.9,1.9,0,1,1,3.8,0V375.1A1.91,1.91,0,0,1,588.36,377Z"/><path class="cls-2" d="M588.36,361.77a17.14,17.14,0,1,1,17.14-17.13A17.15,17.15,0,0,1,588.36,361.77Zm0-30.46a13.33,13.33,0,1,0,13.33,13.33A13.35,13.35,0,0,0,588.36,331.31Z"/><rect class="cls-1" x="748.3" y="192.31" width="38.08" height="182.79"/><rect class="cls-1" x="687.37" y="192.31" width="60.93" height="182.79"/><path class="cls-2" d="M786.38,377h-99a1.91,1.91,0,0,1-1.9-1.91V192.31a1.9,1.9,0,0,1,1.9-1.9h99a1.9,1.9,0,0,1,1.91,1.9V375.1A1.91,1.91,0,0,1,786.38,377Zm-97.1-3.81h95.2v-179h-95.2Z"/><path class="cls-2" d="M748.3,377a1.91,1.91,0,0,1-1.9-1.91V192.31a1.91,1.91,0,0,1,3.81,0V375.1A1.92,1.92,0,0,1,748.3,377Z"/><path class="cls-2" d="M733.07,377a1.91,1.91,0,0,1-1.9-1.91V192.31a1.9,1.9,0,1,1,3.8,0V375.1A1.91,1.91,0,0,1,733.07,377Z"/><path class="cls-2" d="M702.6,377a1.91,1.91,0,0,1-1.9-1.91V192.31a1.91,1.91,0,0,1,3.81,0V375.1A1.91,1.91,0,0,1,702.6,377Z"/><path class="cls-2" d="M717.84,377a1.91,1.91,0,0,1-1.91-1.91V192.31a1.91,1.91,0,0,1,3.81,0V375.1A1.91,1.91,0,0,1,717.84,377Z"/><path class="cls-2" d="M748.3,354.16H687.37a1.91,1.91,0,0,1,0-3.81H748.3a1.91,1.91,0,1,1,0,3.81Z"/><path class="cls-2" d="M748.3,331.31H687.37a1.91,1.91,0,0,1,0-3.81H748.3a1.91,1.91,0,1,1,0,3.81Z"/><path class="cls-2" d="M748.3,308.46H687.37a1.91,1.91,0,0,1,0-3.81H748.3a1.91,1.91,0,1,1,0,3.81Z"/><path class="cls-2" d="M748.3,285.61H687.37a1.91,1.91,0,0,1,0-3.81H748.3a1.91,1.91,0,1,1,0,3.81Z"/><path class="cls-2" d="M748.3,262.76H687.37a1.91,1.91,0,0,1,0-3.81H748.3a1.91,1.91,0,1,1,0,3.81Z"/><path class="cls-2" d="M748.3,239.91H687.37a1.9,1.9,0,1,1,0-3.8H748.3a1.9,1.9,0,1,1,0,3.8Z"/><path class="cls-2" d="M748.3,217.06H687.37a1.9,1.9,0,1,1,0-3.8H748.3a1.9,1.9,0,1,1,0,3.8Z"/><rect class="cls-1" x="778.77" y="230.39" width="38.08" height="15.23"/><rect class="cls-1" x="778.77" y="245.63" width="60.93" height="129.48"/><rect class="cls-1" x="816.85" y="230.39" width="22.85" height="15.23"/><path class="cls-1" d="M744.24,120a7.62,7.62,0,0,1,9.69-4.7l7.2,2.5a7.62,7.62,0,1,1-5,14.39l-7.19-2.5A7.61,7.61,0,0,1,744.24,120Z"/><path class="cls-2" d="M758.64,134.53a9.5,9.5,0,0,1-3.12-.52l-7.2-2.5a9.52,9.52,0,0,1,6.24-18l7.19,2.5a9.52,9.52,0,0,1-3.11,18.51Zm-7.2-17.73a5.73,5.73,0,0,0-5.4,3.85,5.65,5.65,0,0,0,.26,4.36,5.72,5.72,0,0,0,3.27,2.91l7.19,2.49a5.8,5.8,0,0,0,7.27-3.53,5.71,5.71,0,0,0-3.52-7.26l-7.2-2.5A5.74,5.74,0,0,0,751.44,116.8Z"/><path class="cls-1" d="M744.24,137.75a7.63,7.63,0,0,1,9.69-4.7l7.2,2.5a7.62,7.62,0,1,1-5,14.39L749,147.45A7.62,7.62,0,0,1,744.24,137.75Z"/><path class="cls-2" d="M758.64,152.27a9.51,9.51,0,0,1-3.12-.53l-7.2-2.5a9.52,9.52,0,0,1,6.24-18l7.19,2.5a9.52,9.52,0,0,1-3.11,18.52Zm-7.2-17.74a5.73,5.73,0,0,0-5.4,3.85,5.65,5.65,0,0,0,.26,4.36,5.72,5.72,0,0,0,3.27,2.91l7.19,2.49a5.79,5.79,0,0,0,7.27-3.53,5.71,5.71,0,0,0-3.52-7.26l-7.2-2.5A5.74,5.74,0,0,0,751.44,134.53Z"/><path class="cls-1" d="M744.24,155.53a7.62,7.62,0,0,1,9.69-4.71l7.2,2.5a7.62,7.62,0,1,1-5,14.39L749,165.22A7.62,7.62,0,0,1,744.24,155.53Z"/><path class="cls-2" d="M758.64,170a9.51,9.51,0,0,1-3.12-.53l-7.2-2.49a9.52,9.52,0,1,1,6.24-18l7.19,2.49A9.52,9.52,0,0,1,758.64,170Zm-7.2-17.73a5.72,5.72,0,0,0-5.4,3.84,5.72,5.72,0,0,0,3.53,7.27l7.19,2.49a5.8,5.8,0,0,0,7.27-3.52,5.72,5.72,0,0,0-3.52-7.27l-7.2-2.5A5.73,5.73,0,0,0,751.44,152.31Z"/><path class="cls-1" d="M743.57,88.57a7.6,7.6,0,0,1,10.77,0l21.54,21.54a7.62,7.62,0,1,1-10.77,10.77L743.57,99.34A7.62,7.62,0,0,1,743.57,88.57Z"/><path class="cls-2" d="M770.5,125a9.41,9.41,0,0,1-6.73-2.78l-21.55-21.54a9.52,9.52,0,1,1,13.47-13.47l21.54,21.54A9.52,9.52,0,0,1,770.5,125ZM749,88.24a5.71,5.71,0,0,0-4,9.75l21.54,21.54a5.85,5.85,0,0,0,8.08,0,5.71,5.71,0,0,0,0-8.07L753,89.91A5.73,5.73,0,0,0,749,88.24Z"/><rect class="cls-1" x="755.92" y="62.83" width="68.55" height="121.86" rx="7.62" ry="7.62"/><rect class="cls-1" x="763.53" y="78.07" width="53.31" height="91.4"/><path class="cls-2" d="M816.85,186.6H763.53a9.54,9.54,0,0,1-9.52-9.52V70.45a9.54,9.54,0,0,1,9.52-9.52h53.32a9.53,9.53,0,0,1,9.52,9.52V177.08A9.53,9.53,0,0,1,816.85,186.6ZM763.53,64.74a5.71,5.71,0,0,0-5.71,5.71V177.08a5.71,5.71,0,0,0,5.71,5.71h53.32a5.71,5.71,0,0,0,5.71-5.71V70.45a5.71,5.71,0,0,0-5.71-5.71Z"/><path class="cls-1" d="M786.38,230.39V215.16c0-11.9-15.23-15.23-15.23-30.46H794a22.84,22.84,0,0,1,22.85-22.85V139a15.23,15.23,0,0,1,15.23-15.24V230.39Z"/><path class="cls-2" d="M816.85,163.75a1.91,1.91,0,0,1-1.91-1.9V139a1.91,1.91,0,1,1,3.81,0v22.85A1.9,1.9,0,0,1,816.85,163.75Z"/><path class="cls-2" d="M832.08,232.3a1.91,1.91,0,0,1-1.9-1.91V125.8A13.36,13.36,0,0,0,818.75,139v22.85a1.9,1.9,0,0,1-1.9,1.9,21,21,0,0,0-21,20.95,1.9,1.9,0,0,1-1.9,1.9H773.14c.6,6.2,4.08,10,7.74,14.08s7.41,8.16,7.41,14.48v15.23a1.91,1.91,0,1,1-3.81,0V215.16c0-4.85-3-8.13-6.42-11.93-4.13-4.55-8.81-9.71-8.81-18.53a1.9,1.9,0,0,1,1.9-1.91h21A24.8,24.8,0,0,1,814.94,160V139a17.16,17.16,0,0,1,17.14-17.14,1.91,1.91,0,0,1,1.91,1.9V230.39A1.92,1.92,0,0,1,832.08,232.3Z"/><path class="cls-2" d="M763.53,171.37a1.91,1.91,0,0,1-1.9-1.91V78.07a1.91,1.91,0,1,1,3.81,0v91.39A1.91,1.91,0,0,1,763.53,171.37Z"/><path class="cls-2" d="M816.85,80H763.53a1.91,1.91,0,0,1,0-3.81h53.32a1.91,1.91,0,0,1,0,3.81Z"/><path class="cls-2" d="M799.85,171.37H763.53a1.91,1.91,0,0,1,0-3.81h36.32a1.91,1.91,0,0,1,0,3.81Z"/><path class="cls-2" d="M816.85,137.09a1.91,1.91,0,0,1-1.91-1.9V78.07a1.91,1.91,0,1,1,3.81,0v57.12A1.9,1.9,0,0,1,816.85,137.09Z"/><path class="cls-2" d="M797.81,72.35H782.58a1.9,1.9,0,1,1,0-3.8h15.23a1.9,1.9,0,1,1,0,3.8Z"/><circle class="cls-1" cx="755.92" cy="62.83" r="11.42"/><path class="cls-2" d="M755.92,76.16a13.33,13.33,0,1,1,13.33-13.33A13.35,13.35,0,0,1,755.92,76.16Zm0-22.85a9.52,9.52,0,1,0,9.52,9.52A9.54,9.54,0,0,0,755.92,53.31Z"/><path class="cls-2" d="M839.7,247.53H778.77a1.9,1.9,0,0,1-1.91-1.9V230.39a1.9,1.9,0,0,1,1.91-1.9H839.7a1.9,1.9,0,0,1,1.9,1.9v15.24A1.9,1.9,0,0,1,839.7,247.53Zm-59-3.81h57.12V232.3H780.67Z"/><path class="cls-2" d="M816.85,247.53a1.91,1.91,0,0,1-1.91-1.9V230.39a1.91,1.91,0,0,1,3.81,0v15.24A1.9,1.9,0,0,1,816.85,247.53Z"/><path class="cls-2" d="M839.7,377a1.92,1.92,0,0,1-1.91-1.91V245.63a1.91,1.91,0,1,1,3.81,0V375.1A1.91,1.91,0,0,1,839.7,377Z"/><path class="cls-2" d="M778.77,377a1.91,1.91,0,0,1-1.91-1.91V245.63a1.91,1.91,0,1,1,3.81,0V375.1A1.91,1.91,0,0,1,778.77,377Z"/><polygon class="cls-1" points="177.08 298.94 169.46 260.86 177.08 222.78 169.46 184.69 177.08 146.61 116.15 146.61 108.53 184.69 116.15 222.78 108.53 260.86 116.15 298.94 108.53 337.02 116.15 375.1 177.08 375.1 169.46 337.02 177.08 298.94"/><polygon class="cls-1" points="177.08 146.61 169.46 184.69 177.08 222.78 169.46 260.86 177.08 298.94 169.46 337.02 177.08 375.1 215.16 375.1 215.16 146.61 177.08 146.61"/><path class="cls-2" d="M116.15,377a1.91,1.91,0,0,1-1.87-1.53l-7.61-38.08a1.89,1.89,0,0,1,0-.75l7.54-37.71-7.54-37.71a1.89,1.89,0,0,1,0-.75l7.54-37.7-7.54-37.71a1.89,1.89,0,0,1,0-.75l7.61-38.08a1.91,1.91,0,0,1,1.87-1.53h99a1.9,1.9,0,0,1,1.9,1.9V375.1a1.9,1.9,0,1,1-3.8,0V148.52H117.71l-7.24,36.18L118,222.4a2.36,2.36,0,0,1,0,.75l-7.55,37.71L118,298.57a2.3,2.3,0,0,1,0,.74L110.47,337,118,374.73a1.92,1.92,0,0,1-1.5,2.24A1.55,1.55,0,0,1,116.15,377Z"/><path class="cls-2" d="M131.38,377a1.91,1.91,0,0,1-1.87-1.53L121.9,337.4a1.89,1.89,0,0,1,0-.75l7.61-38.08a1.91,1.91,0,1,1,3.74.74L125.71,337l7.54,37.71a1.91,1.91,0,0,1-1.49,2.24A1.69,1.69,0,0,1,131.38,377Z"/><path class="cls-2" d="M131.38,300.84a1.9,1.9,0,0,1-1.87-1.53l-7.61-38.08a1.89,1.89,0,0,1,0-.75l7.61-38.08a1.91,1.91,0,0,1,3.74.75l-7.54,37.71,7.54,37.71a1.91,1.91,0,0,1-1.49,2.24Z"/><path class="cls-2" d="M131.38,224.68a1.9,1.9,0,0,1-1.87-1.53l-7.61-38.08a1.89,1.89,0,0,1,0-.75l7.61-38.08a1.91,1.91,0,0,1,3.74.75l-7.54,37.71,7.54,37.7a1.9,1.9,0,0,1-1.49,2.24A1.69,1.69,0,0,1,131.38,224.68Z"/><path class="cls-2" d="M146.61,377a1.9,1.9,0,0,1-1.86-1.53l-7.62-38.08a1.89,1.89,0,0,1,0-.75l7.62-38.08a1.9,1.9,0,1,1,3.73.74L140.94,337l7.54,37.71A1.9,1.9,0,0,1,147,377,1.64,1.64,0,0,1,146.61,377Z"/><path class="cls-2" d="M146.61,300.84a1.89,1.89,0,0,1-1.86-1.53l-7.62-38.08a1.89,1.89,0,0,1,0-.75l7.62-38.08a1.9,1.9,0,0,1,3.73.75l-7.54,37.71,7.54,37.71a1.9,1.9,0,0,1-1.49,2.24A2.43,2.43,0,0,1,146.61,300.84Z"/><path class="cls-2" d="M146.61,224.68a1.89,1.89,0,0,1-1.86-1.53l-7.62-38.08a1.89,1.89,0,0,1,0-.75l7.62-38.08a1.9,1.9,0,0,1,3.73.75l-7.54,37.71,7.54,37.7a1.9,1.9,0,0,1-1.49,2.24A1.64,1.64,0,0,1,146.61,224.68Z"/><path class="cls-2" d="M161.84,377a1.91,1.91,0,0,1-1.86-1.53l-7.62-38.08a1.89,1.89,0,0,1,0-.75L160,298.57a1.9,1.9,0,1,1,3.73.74L156.17,337l7.54,37.71a1.9,1.9,0,0,1-1.49,2.24A1.64,1.64,0,0,1,161.84,377Z"/><path class="cls-2" d="M161.84,300.84a1.9,1.9,0,0,1-1.86-1.53l-7.62-38.08a1.89,1.89,0,0,1,0-.75L160,222.4a1.9,1.9,0,0,1,3.73.75l-7.54,37.71,7.54,37.71a1.9,1.9,0,0,1-1.49,2.24A2.43,2.43,0,0,1,161.84,300.84Z"/><path class="cls-2" d="M161.84,224.68a1.9,1.9,0,0,1-1.86-1.53l-7.62-38.08a1.89,1.89,0,0,1,0-.75L160,146.24a1.9,1.9,0,1,1,3.73.75l-7.54,37.71,7.54,37.7a1.9,1.9,0,0,1-1.49,2.24A1.64,1.64,0,0,1,161.84,224.68Z"/><path class="cls-2" d="M177.08,377a1.91,1.91,0,0,1-1.87-1.53L167.6,337.4a1.89,1.89,0,0,1,0-.75l7.61-38.08a1.91,1.91,0,0,1,3.74.74L171.4,337,179,374.73a1.92,1.92,0,0,1-1.5,2.24A1.55,1.55,0,0,1,177.08,377Z"/><path class="cls-2" d="M177.08,300.84a1.9,1.9,0,0,1-1.87-1.53l-7.61-38.08a1.89,1.89,0,0,1,0-.75l7.61-38.08a1.91,1.91,0,0,1,3.74.75l-7.55,37.71L179,298.57a1.92,1.92,0,0,1-1.5,2.24A2.31,2.31,0,0,1,177.08,300.84Z"/><path class="cls-2" d="M177.08,224.68a1.9,1.9,0,0,1-1.87-1.53l-7.61-38.08a1.89,1.89,0,0,1,0-.75l7.61-38.08A1.91,1.91,0,0,1,179,147L171.4,184.7,179,222.4a1.91,1.91,0,0,1-1.5,2.24A1.55,1.55,0,0,1,177.08,224.68Z"/><path class="cls-2" d="M215.16,377h-99a1.91,1.91,0,1,1,0-3.81h99a1.91,1.91,0,0,1,0,3.81Z"/><path class="cls-2" d="M169.46,186.6H108.53a1.91,1.91,0,0,1,0-3.81h60.93a1.91,1.91,0,1,1,0,3.81Z"/><path class="cls-2" d="M177.08,224.68H116.15a1.91,1.91,0,1,1,0-3.81h60.93a1.91,1.91,0,0,1,0,3.81Z"/><path class="cls-2" d="M169.46,262.76H108.53a1.91,1.91,0,0,1,0-3.81h60.93a1.91,1.91,0,1,1,0,3.81Z"/><path class="cls-2" d="M177.08,300.84H116.15a1.9,1.9,0,1,1,0-3.8h60.93a1.9,1.9,0,0,1,0,3.8Z"/><path class="cls-2" d="M169.46,338.93H108.53a1.91,1.91,0,0,1,0-3.81h60.93a1.91,1.91,0,1,1,0,3.81Z"/><path class="cls-2" d="M177.08,377H116.15a1.91,1.91,0,1,1,0-3.81h60.93a1.91,1.91,0,0,1,0,3.81Z"/><circle class="cls-1" cx="108.53" cy="356.06" r="11.42"/><path class="cls-2" d="M108.53,377a1.91,1.91,0,0,1-1.9-1.91V359.87a1.91,1.91,0,0,1,3.81,0V375.1A1.92,1.92,0,0,1,108.53,377Z"/><path class="cls-2" d="M108.53,369.39a13.33,13.33,0,1,1,13.33-13.33A13.35,13.35,0,0,1,108.53,369.39Zm0-22.85a9.52,9.52,0,1,0,9.52,9.52A9.53,9.53,0,0,0,108.53,346.54Z"/><rect class="cls-1" x="238.01" y="184.7" width="91.4" height="190.41"/><rect class="cls-1" x="276.09" y="184.7" width="45.7" height="190.41"/><path class="cls-2" d="M329.41,377H238a1.91,1.91,0,0,1-1.9-1.91V184.7a1.9,1.9,0,0,1,1.9-1.91h91.4a1.9,1.9,0,0,1,1.9,1.91V375.1A1.91,1.91,0,0,1,329.41,377Zm-89.5-3.81H327.5V186.6H239.91Z"/><path class="cls-2" d="M268.47,377a1.91,1.91,0,0,1-1.9-1.91V184.7a1.91,1.91,0,1,1,3.81,0V375.1A1.91,1.91,0,0,1,268.47,377Z"/><path class="cls-2" d="M276.09,377a1.91,1.91,0,0,1-1.9-1.91V184.7a1.91,1.91,0,1,1,3.81,0V375.1A1.92,1.92,0,0,1,276.09,377Z"/><path class="cls-2" d="M291.32,377a1.91,1.91,0,0,1-1.9-1.91V184.7a1.91,1.91,0,1,1,3.81,0V375.1A1.91,1.91,0,0,1,291.32,377Z"/><path class="cls-2" d="M306.56,377a1.91,1.91,0,0,1-1.91-1.91V184.7a1.91,1.91,0,1,1,3.81,0V375.1A1.91,1.91,0,0,1,306.56,377Z"/><path class="cls-2" d="M321.79,377a1.92,1.92,0,0,1-1.91-1.91V184.7a1.91,1.91,0,1,1,3.81,0V375.1A1.91,1.91,0,0,1,321.79,377Z"/><rect class="cls-1" x="222.78" y="215.16" width="38.08" height="15.23"/><rect class="cls-1" x="199.93" y="230.39" width="60.93" height="144.71"/><rect class="cls-1" x="199.93" y="215.16" width="22.85" height="15.23"/><path class="cls-1" d="M295.38,104.79a7.61,7.61,0,0,0-9.69-4.7l-7.19,2.49a7.62,7.62,0,1,0,5,14.4l7.2-2.5A7.61,7.61,0,0,0,295.38,104.79Z"/><path class="cls-2" d="M281,119.3h0a9.52,9.52,0,0,1-3.12-18.51l7.2-2.5a9.52,9.52,0,1,1,6.23,18l-7.19,2.5A9.77,9.77,0,0,1,281,119.3Zm7.2-17.73a5.65,5.65,0,0,0-1.87.32l-7.2,2.49a5.71,5.71,0,0,0,3.74,10.8l7.2-2.5a5.71,5.71,0,0,0-1.87-11.11Z"/><path class="cls-1" d="M295.38,122.52a7.61,7.61,0,0,0-9.69-4.7l-7.19,2.49a7.62,7.62,0,1,0,5,14.4l7.2-2.5A7.61,7.61,0,0,0,295.38,122.52Z"/><path class="cls-2" d="M281,137h0a9.52,9.52,0,0,1-3.12-18.51l7.2-2.5a9.52,9.52,0,1,1,6.23,18l-7.19,2.5A9.5,9.5,0,0,1,281,137Zm7.2-17.73a5.65,5.65,0,0,0-1.87.32l-7.2,2.49a5.71,5.71,0,0,0,3.74,10.8l7.2-2.5a5.71,5.71,0,0,0-1.87-11.11Z"/><path class="cls-1" d="M295.38,140.29a7.61,7.61,0,0,0-9.69-4.7l-7.19,2.5a7.61,7.61,0,1,0,5,14.39l7.2-2.5A7.6,7.6,0,0,0,295.38,140.29Z"/><path class="cls-2" d="M281,154.8h0a9.52,9.52,0,0,1-3.12-18.51l7.2-2.5a9.52,9.52,0,1,1,6.23,18l-7.19,2.5A9.5,9.5,0,0,1,281,154.8Zm7.2-17.73a5.65,5.65,0,0,0-1.87.32l-7.2,2.5a5.71,5.71,0,1,0,3.74,10.79l7.2-2.49a5.75,5.75,0,0,0,3.27-2.91,5.73,5.73,0,0,0-5.14-8.21Z"/><path class="cls-1" d="M296.05,73.33a7.62,7.62,0,0,0-10.77,0L263.74,94.88a7.62,7.62,0,0,0,10.77,10.77l21.55-21.54A7.63,7.63,0,0,0,296.05,73.33Z"/><path class="cls-2" d="M269.13,109.78h0a9.52,9.52,0,0,1-6.73-16.25L283.94,72A9.52,9.52,0,1,1,297.4,85.45L275.86,107A9.46,9.46,0,0,1,269.13,109.78ZM290.67,73a5.66,5.66,0,0,0-4,1.67L265.09,96.22a5.72,5.72,0,0,0,0,8.08,5.85,5.85,0,0,0,8.08,0l21.54-21.54a5.71,5.71,0,0,0-4-9.75Z"/><rect class="cls-1" x="215.16" y="47.6" width="68.55" height="121.86" rx="7.62" ry="7.62"/><rect class="cls-1" x="222.78" y="62.83" width="53.31" height="91.4"/><path class="cls-2" d="M276.09,171.37H222.78a9.53,9.53,0,0,1-9.52-9.52V55.22a9.53,9.53,0,0,1,9.52-9.52h53.31a9.53,9.53,0,0,1,9.52,9.52V161.85A9.53,9.53,0,0,1,276.09,171.37ZM222.78,49.51a5.72,5.72,0,0,0-5.72,5.71V161.85a5.72,5.72,0,0,0,5.72,5.71h53.31a5.71,5.71,0,0,0,5.71-5.71V55.22a5.71,5.71,0,0,0-5.71-5.71Z"/><path class="cls-1" d="M253.24,215.16V199.93c0-11.9,15.23-15.23,15.23-30.47H245.63a22.84,22.84,0,0,0-22.85-22.85V123.76a15.23,15.23,0,0,0-15.24-15.23V215.16Z"/><path class="cls-2" d="M222.78,148.52a1.91,1.91,0,0,1-1.91-1.91V123.76a1.91,1.91,0,0,1,3.81,0v22.85A1.9,1.9,0,0,1,222.78,148.52Z"/><path class="cls-2" d="M253.24,217.06a1.9,1.9,0,0,1-1.9-1.9V199.93c0-6.32,3.76-10.47,7.41-14.49s7.14-7.87,7.73-14.07H245.63a1.91,1.91,0,0,1-1.91-1.91,21,21,0,0,0-20.94-20.94,1.91,1.91,0,0,1-1.91-1.91V123.76a13.35,13.35,0,0,0-11.42-13.19V215.16a1.91,1.91,0,0,1-3.81,0V108.53a1.9,1.9,0,0,1,1.9-1.9,17.16,17.16,0,0,1,17.14,17.13v21a24.8,24.8,0,0,1,22.78,22.78h21a1.9,1.9,0,0,1,1.91,1.9c0,8.82-4.68,14-8.81,18.54-3.45,3.8-6.42,7.08-6.42,11.93v15.23A1.91,1.91,0,0,1,253.24,217.06Z"/><path class="cls-2" d="M276.09,156.13a1.9,1.9,0,0,1-1.9-1.9V62.83a1.91,1.91,0,0,1,3.81,0v91.4A1.91,1.91,0,0,1,276.09,156.13Z"/><path class="cls-2" d="M276.09,64.74H222.78a1.91,1.91,0,1,1,0-3.81h53.31a1.91,1.91,0,1,1,0,3.81Z"/><path class="cls-2" d="M276.09,156.13H239.78a1.9,1.9,0,0,1,0-3.8h36.31a1.9,1.9,0,1,1,0,3.8Z"/><path class="cls-2" d="M222.78,121.86a1.91,1.91,0,0,1-1.91-1.9V62.83a1.91,1.91,0,0,1,3.81,0V120A1.9,1.9,0,0,1,222.78,121.86Z"/><path class="cls-2" d="M257.05,57.12H241.82a1.91,1.91,0,1,1,0-3.81h15.23a1.91,1.91,0,0,1,0,3.81Z"/><path class="cls-2" d="M260.86,232.3H199.93a1.92,1.92,0,0,1-1.91-1.91V215.16a1.91,1.91,0,0,1,1.91-1.9h60.93a1.9,1.9,0,0,1,1.9,1.9v15.23A1.91,1.91,0,0,1,260.86,232.3Zm-59-3.81H259V217.06H201.83Z"/><path class="cls-2" d="M222.78,232.3a1.92,1.92,0,0,1-1.91-1.91V215.16a1.91,1.91,0,0,1,3.81,0v15.23A1.91,1.91,0,0,1,222.78,232.3Z"/><path class="cls-2" d="M199.93,377A1.92,1.92,0,0,1,198,375.1V230.39a1.91,1.91,0,0,1,3.81,0V375.1A1.91,1.91,0,0,1,199.93,377Z"/><path class="cls-2" d="M260.86,377A1.92,1.92,0,0,1,259,375.1V230.39a1.91,1.91,0,0,1,3.81,0V375.1A1.91,1.91,0,0,1,260.86,377Z"/><path class="cls-1" d="M603.59,283.71H565.51a7.62,7.62,0,0,1-7.62-7.62c0-8.42,20.44-22.85,45.7-22.85Z"/><path class="cls-1" d="M572.47,260.86H596l-7.62,7.61H562A42.09,42.09,0,0,1,572.47,260.86Z"/><rect class="cls-1" x="740.69" y="253.24" width="68.55" height="30.47"/><path class="cls-2" d="M809.23,285.61H740.69a1.9,1.9,0,0,1-1.91-1.9V253.24a1.9,1.9,0,0,1,1.91-1.9h68.54a1.91,1.91,0,0,1,1.91,1.9v30.47A1.91,1.91,0,0,1,809.23,285.61Zm-66.64-3.81h64.74V255.15H742.59Z"/><polygon class="cls-1" points="755.92 260.86 801.62 260.86 794 268.48 748.3 268.48 755.92 260.86"/><rect class="cls-1" x="603.59" y="253.24" width="68.55" height="30.47"/><path class="cls-2" d="M672.14,285.61H603.59a1.9,1.9,0,0,1-1.9-1.9V253.24a1.9,1.9,0,0,1,1.9-1.9h68.55a1.9,1.9,0,0,1,1.9,1.9v30.47A1.9,1.9,0,0,1,672.14,285.61ZM605.5,281.8h64.73V255.15H605.5Z"/><polygon class="cls-1" points="618.83 260.86 664.52 260.86 656.91 268.48 611.21 268.48 618.83 260.86"/><rect class="cls-1" x="672.14" y="253.24" width="68.55" height="30.47"/><path class="cls-2" d="M740.69,285.61H672.14a1.91,1.91,0,0,1-1.91-1.9V253.24a1.91,1.91,0,0,1,1.91-1.9h68.55a1.9,1.9,0,0,1,1.9,1.9v30.47A1.9,1.9,0,0,1,740.69,285.61ZM674,281.8h64.74V255.15H674Z"/><path class="cls-1" d="M740.69,260.86h0Z"/><path class="cls-2" d="M740.69,262.76H672.14a1.91,1.91,0,1,1,0-3.81h68.55a1.91,1.91,0,0,1,0,3.81Z"/><path class="cls-2" d="M603.59,285.61H565.51a9.53,9.53,0,0,1-9.52-9.52c0-9.77,21.33-24.75,47.6-24.75a1.91,1.91,0,1,1,0,3.81c-24.86,0-43.79,14-43.79,20.94a5.71,5.71,0,0,0,5.71,5.71h38.08a1.91,1.91,0,1,1,0,3.81Z"/><path class="cls-2" d="M672.14,262.76h-99a1.91,1.91,0,1,1,0-3.81h99a1.91,1.91,0,0,1,0,3.81Z"/><path class="cls-2" d="M588.36,270.38H562a1.91,1.91,0,1,1,0-3.81h26.4a1.91,1.91,0,0,1,0,3.81Z"/><path class="cls-2" d="M588.36,270.38a1.91,1.91,0,0,1-1.35-3.25l7.62-7.62a1.9,1.9,0,0,1,2.69,2.69l-7.61,7.62A1.93,1.93,0,0,1,588.36,270.38Z"/><path class="cls-2" d="M656.91,270.38h-45.7a1.91,1.91,0,1,1,0-3.81h45.7a1.91,1.91,0,0,1,0,3.81Z"/><path class="cls-2" d="M656.91,270.38a1.91,1.91,0,0,1-1.35-3.25l7.62-7.62a1.9,1.9,0,0,1,2.69,2.69l-7.62,7.62A1.9,1.9,0,0,1,656.91,270.38Z"/><path class="cls-2" d="M611.21,270.38a1.91,1.91,0,0,1-1.35-3.25l7.62-7.62a1.9,1.9,0,1,1,2.69,2.69l-7.62,7.62A1.89,1.89,0,0,1,611.21,270.38Z"/><polygon class="cls-1" points="686.83 260.86 732.53 260.86 724.91 268.48 679.22 268.48 686.83 260.86"/><path class="cls-2" d="M724.91,270.38H679.22a1.91,1.91,0,0,1-1.76-1.18,1.87,1.87,0,0,1,.41-2.07l7.62-7.62a1.92,1.92,0,0,1,1.34-.56h45.7a1.91,1.91,0,0,1,1.35,3.25l-7.62,7.62A1.9,1.9,0,0,1,724.91,270.38Zm-41.1-3.81h40.32l3.8-3.81H687.62Z"/><path class="cls-2" d="M793.46,270.38h-45.7a1.91,1.91,0,0,1,0-3.81h45.7a1.91,1.91,0,0,1,0,3.81Z"/><path class="cls-2" d="M793.46,270.38a1.91,1.91,0,0,1-1.35-3.25l7.62-7.62a1.9,1.9,0,1,1,2.69,2.69l-7.61,7.62A1.93,1.93,0,0,1,793.46,270.38Z"/><path class="cls-2" d="M747.76,270.38a1.91,1.91,0,0,1-1.34-3.25l7.61-7.62a1.91,1.91,0,0,1,2.7,2.69l-7.62,7.62A1.91,1.91,0,0,1,747.76,270.38Z"/><rect class="cls-1" x="809.23" y="253.24" width="68.55" height="30.47"/><path class="cls-2" d="M877.78,285.61H809.23a1.9,1.9,0,0,1-1.9-1.9V253.24a1.9,1.9,0,0,1,1.9-1.9h68.55a1.9,1.9,0,0,1,1.9,1.9v30.47A1.9,1.9,0,0,1,877.78,285.61Zm-66.64-3.81h64.74V255.15H811.14Z"/><polygon class="cls-1" points="824.47 260.86 870.16 260.86 862.55 268.48 816.85 268.48 824.47 260.86"/><path class="cls-1" d="M877.78,260.86h0Z"/><path class="cls-2" d="M877.78,262.76H809.23a1.91,1.91,0,0,1,0-3.81h68.55a1.91,1.91,0,0,1,0,3.81Z"/><path class="cls-2" d="M862,270.38h-45.7a1.91,1.91,0,0,1,0-3.81H862a1.91,1.91,0,0,1,0,3.81Z"/><path class="cls-2" d="M862,270.38a1.91,1.91,0,0,1-1.35-3.25l7.62-7.62A1.9,1.9,0,0,1,871,262.2l-7.62,7.62A1.9,1.9,0,0,1,862,270.38Z"/><path class="cls-2" d="M816.31,270.38a1.91,1.91,0,0,1-1.35-3.25l7.62-7.62a1.9,1.9,0,0,1,2.69,2.69l-7.61,7.62A1.93,1.93,0,0,1,816.31,270.38Z"/><rect class="cls-1" x="877.78" y="253.24" width="68.55" height="30.47"/><path class="cls-2" d="M946.33,285.61H877.78a1.9,1.9,0,0,1-1.9-1.9V253.24a1.9,1.9,0,0,1,1.9-1.9h68.55a1.9,1.9,0,0,1,1.9,1.9v30.47A1.9,1.9,0,0,1,946.33,285.61Zm-66.65-3.81h64.74V255.15H879.68Z"/><polygon class="cls-1" points="893.01 260.86 938.71 260.86 931.09 268.48 885.4 268.48 893.01 260.86"/><path class="cls-1" d="M946.33,260.86h0Z"/><path class="cls-2" d="M946.33,262.76H877.78a1.91,1.91,0,0,1,0-3.81h68.55a1.91,1.91,0,0,1,0,3.81Z"/><path class="cls-2" d="M930.55,270.38H884.86a1.91,1.91,0,1,1,0-3.81h45.69a1.91,1.91,0,1,1,0,3.81Z"/><path class="cls-2" d="M930.55,270.38a1.91,1.91,0,0,1-1.34-3.25l7.61-7.62a1.91,1.91,0,1,1,2.7,2.69l-7.62,7.62A1.91,1.91,0,0,1,930.55,270.38Z"/><path class="cls-2" d="M884.86,270.38a1.91,1.91,0,0,1-1.35-3.25l7.62-7.62a1.9,1.9,0,0,1,2.69,2.69l-7.62,7.62A1.9,1.9,0,0,1,884.86,270.38Z"/><path class="cls-1" d="M809.23,260.86h0Z"/><path class="cls-2" d="M809.23,262.76H740.69a1.91,1.91,0,1,1,0-3.81h68.54a1.91,1.91,0,1,1,0,3.81Z"/><rect class="cls-1" x="1037.72" y="306.56" width="7.62" height="68.55"/><rect class="cls-1" x="839.7" y="306.56" width="7.62" height="68.55"/><rect class="cls-1" x="641.67" y="306.56" width="7.62" height="68.55"/><rect class="cls-1" x="443.65" y="306.56" width="7.62" height="68.55"/><rect class="cls-1" x="245.63" y="306.56" width="7.62" height="68.55"/><rect class="cls-1" x="47.6" y="306.56" width="7.62" height="68.55"/><rect class="cls-1" x="1.9" y="291.32" width="1096.75" height="15.23"/><path class="cls-2" d="M1098.65,308.46H1.9a1.91,1.91,0,0,1,0-3.81H1098.65a1.91,1.91,0,1,1,0,3.81Z"/><path class="cls-2" d="M1037.72,377a1.91,1.91,0,0,1-1.9-1.91V306.56a1.91,1.91,0,1,1,3.81,0V375.1A1.92,1.92,0,0,1,1037.72,377Z"/><path class="cls-2" d="M1045.34,377a1.92,1.92,0,0,1-1.91-1.91V306.56a1.91,1.91,0,1,1,3.81,0V375.1A1.91,1.91,0,0,1,1045.34,377Z"/><path class="cls-2" d="M839.7,377a1.92,1.92,0,0,1-1.91-1.91V306.56a1.91,1.91,0,1,1,3.81,0V375.1A1.91,1.91,0,0,1,839.7,377Z"/><path class="cls-2" d="M847.31,377a1.91,1.91,0,0,1-1.9-1.91V306.56a1.91,1.91,0,1,1,3.81,0V375.1A1.91,1.91,0,0,1,847.31,377Z"/><path class="cls-2" d="M641.67,377a1.91,1.91,0,0,1-1.9-1.91V306.56a1.91,1.91,0,1,1,3.81,0V375.1A1.91,1.91,0,0,1,641.67,377Z"/><path class="cls-2" d="M649.29,377a1.91,1.91,0,0,1-1.9-1.91V306.56a1.9,1.9,0,1,1,3.8,0V375.1A1.91,1.91,0,0,1,649.29,377Z"/><path class="cls-2" d="M443.65,377a1.91,1.91,0,0,1-1.9-1.91V306.56a1.9,1.9,0,1,1,3.8,0V375.1A1.91,1.91,0,0,1,443.65,377Z"/><path class="cls-2" d="M451.27,377a1.91,1.91,0,0,1-1.91-1.91V306.56a1.91,1.91,0,1,1,3.81,0V375.1A1.91,1.91,0,0,1,451.27,377Z"/><path class="cls-2" d="M245.63,377a1.91,1.91,0,0,1-1.91-1.91V306.56a1.91,1.91,0,1,1,3.81,0V375.1A1.91,1.91,0,0,1,245.63,377Z"/><path class="cls-2" d="M253.24,377a1.91,1.91,0,0,1-1.9-1.91V306.56a1.91,1.91,0,1,1,3.81,0V375.1A1.92,1.92,0,0,1,253.24,377Z"/><path class="cls-2" d="M47.6,377a1.91,1.91,0,0,1-1.9-1.91V306.56a1.91,1.91,0,1,1,3.81,0V375.1A1.92,1.92,0,0,1,47.6,377Z"/><path class="cls-2" d="M55.22,377a1.92,1.92,0,0,1-1.91-1.91V306.56a1.91,1.91,0,1,1,3.81,0V375.1A1.91,1.91,0,0,1,55.22,377Z"/><path class="cls-2" d="M1098.65,293.23H1.9a1.91,1.91,0,0,1,0-3.81H1098.65a1.91,1.91,0,1,1,0,3.81Z"/><circle class="cls-1" cx="337.02" cy="337.02" r="22.85"/><path class="cls-2" d="M337,377a1.91,1.91,0,0,1-1.9-1.91V344.64a1.91,1.91,0,1,1,3.81,0V375.1A1.92,1.92,0,0,1,337,377Z"/><path class="cls-2" d="M337,361.77A24.75,24.75,0,1,1,361.77,337,24.77,24.77,0,0,1,337,361.77Zm0-45.69A20.95,20.95,0,1,0,358,337,21,21,0,0,0,337,316.08Z"/><circle class="cls-1" cx="535.05" cy="337.02" r="22.85"/><path class="cls-2" d="M535.05,377a1.91,1.91,0,0,1-1.91-1.91V344.64a1.91,1.91,0,1,1,3.81,0V375.1A1.91,1.91,0,0,1,535.05,377Z"/><path class="cls-2" d="M535.05,361.77A24.75,24.75,0,1,1,559.8,337,24.78,24.78,0,0,1,535.05,361.77Zm0-45.69A20.95,20.95,0,1,0,556,337,21,21,0,0,0,535.05,316.08Z"/><circle class="cls-1" cx="550.28" cy="359.87" r="7.62"/><path class="cls-2" d="M550.28,369.39a9.52,9.52,0,1,1,9.52-9.52A9.53,9.53,0,0,1,550.28,369.39Zm0-15.23a5.71,5.71,0,1,0,5.71,5.71A5.71,5.71,0,0,0,550.28,354.16Z"/><path class="cls-2" d="M550.28,377a1.92,1.92,0,0,1-1.91-1.91V359.87a1.91,1.91,0,0,1,3.81,0V375.1A1.91,1.91,0,0,1,550.28,377Z"/><circle class="cls-1" cx="1083.42" cy="359.87" r="7.62"/><path class="cls-2" d="M1083.42,369.39a9.52,9.52,0,1,1,9.52-9.52A9.53,9.53,0,0,1,1083.42,369.39Zm0-15.23a5.71,5.71,0,1,0,5.71,5.71A5.71,5.71,0,0,0,1083.42,354.16Z"/><path class="cls-2" d="M1083.42,377a1.91,1.91,0,0,1-1.9-1.91V359.87a1.9,1.9,0,1,1,3.8,0V375.1A1.91,1.91,0,0,1,1083.42,377Z"/><circle class="cls-1" cx="32.37" cy="359.87" r="7.62"/><path class="cls-2" d="M32.37,369.39a9.52,9.52,0,1,1,9.52-9.52A9.53,9.53,0,0,1,32.37,369.39Zm0-15.23a5.71,5.71,0,1,0,5.71,5.71A5.71,5.71,0,0,0,32.37,354.16Z"/><path class="cls-2" d="M32.37,377a1.91,1.91,0,0,1-1.9-1.91V359.87a1.9,1.9,0,0,1,3.8,0V375.1A1.91,1.91,0,0,1,32.37,377Z"/><circle class="cls-1" cx="474.12" cy="356.06" r="11.42"/><path class="cls-2" d="M474.12,377a1.91,1.91,0,0,1-1.91-1.91V359.87a1.91,1.91,0,0,1,3.81,0V375.1A1.91,1.91,0,0,1,474.12,377Z"/><path class="cls-2" d="M474.12,369.39a13.33,13.33,0,1,1,13.32-13.33A13.35,13.35,0,0,1,474.12,369.39Zm0-22.85a9.52,9.52,0,1,0,9.52,9.52A9.54,9.54,0,0,0,474.12,346.54Z"/><rect class="cls-1" x="375.1" y="337.02" width="60.93" height="38.08"/><path class="cls-1" d="M339.91,180a7.62,7.62,0,0,1,10.77,0l21.54,21.54a7.62,7.62,0,0,1-10.77,10.78l-21.54-21.55A7.6,7.6,0,0,1,339.91,180Z"/><path class="cls-2" d="M366.83,216.41a9.46,9.46,0,0,1-6.73-2.79l-21.54-21.54A9.52,9.52,0,1,1,352,178.62l21.55,21.54a9.52,9.52,0,0,1-6.74,16.25Zm-21.54-36.77a5.71,5.71,0,0,0-4,9.75l21.54,21.54a5.85,5.85,0,0,0,8.08,0,5.7,5.7,0,0,0,0-8.08l-21.54-21.54A5.66,5.66,0,0,0,345.29,179.64Z"/><rect class="cls-1" x="352.25" y="154.23" width="68.55" height="121.86" rx="7.62" ry="7.62"/><rect class="cls-1" x="359.87" y="169.46" width="53.31" height="91.4"/><circle class="cls-1" cx="386.53" cy="216.41" r="19.04"/><path class="cls-2" d="M386.53,237.36a20.95,20.95,0,1,1,20.94-21A21,21,0,0,1,386.53,237.36Zm0-38.09a17.14,17.14,0,1,0,17.13,17.14A17.16,17.16,0,0,0,386.53,199.27Z"/><path class="cls-2" d="M386.53,237.36a1.92,1.92,0,0,1-1.91-1.91V197.37a1.91,1.91,0,0,1,3.81,0v38.08A1.91,1.91,0,0,1,386.53,237.36Z"/><path class="cls-2" d="M386.53,237.36c-6.41,0-11.43-9.2-11.43-21s5-20.94,11.43-20.94S398,204.66,398,216.41,392.93,237.36,386.53,237.36Zm0-38.09c-3.61,0-7.62,7-7.62,17.14s4,17.14,7.62,17.14,7.61-7,7.61-17.14S390.13,199.27,386.53,199.27Z"/><path class="cls-2" d="M405.57,218.31H367.49a1.9,1.9,0,1,1,0-3.8h38.08a1.9,1.9,0,1,1,0,3.8Z"/><path class="cls-2" d="M413.18,262.76H359.87a1.9,1.9,0,0,1-1.9-1.9v-91.4a1.9,1.9,0,0,1,1.9-1.9h53.31a1.9,1.9,0,0,1,1.91,1.9v91.4A1.9,1.9,0,0,1,413.18,262.76ZM361.77,259h49.51V171.37H361.77Z"/><path class="cls-2" d="M413.18,278H359.87a9.54,9.54,0,0,1-9.52-9.53V161.85a9.53,9.53,0,0,1,9.52-9.52h53.31a9.53,9.53,0,0,1,9.52,9.52V268.47A9.54,9.54,0,0,1,413.18,278ZM359.87,156.13a5.72,5.72,0,0,0-5.71,5.72V268.47a5.72,5.72,0,0,0,5.71,5.72h53.31a5.73,5.73,0,0,0,5.72-5.72V161.85a5.73,5.73,0,0,0-5.72-5.72Z"/><path class="cls-2" d="M394.14,163.75H378.91a1.91,1.91,0,0,1,0-3.81h15.23a1.91,1.91,0,1,1,0,3.81Z"/><path class="cls-1" d="M341.46,211.42a7.61,7.61,0,0,1,9.69-4.7l7.2,2.49a7.62,7.62,0,1,1-5,14.39l-7.2-2.49A7.62,7.62,0,0,1,341.46,211.42Z"/><path class="cls-2" d="M355.85,225.93a9.51,9.51,0,0,1-3.12-.53l-7.19-2.49a9.52,9.52,0,1,1,6.24-18l7.19,2.49a9.52,9.52,0,0,1-3.12,18.52Zm-7.19-17.73a5.71,5.71,0,0,0-5.14,8.21,5.64,5.64,0,0,0,3.27,2.9l7.19,2.5a5.71,5.71,0,0,0,3.74-10.8l-7.19-2.49A5.74,5.74,0,0,0,348.66,208.2Z"/><path class="cls-1" d="M341.46,229.15a7.61,7.61,0,0,1,9.69-4.7l7.2,2.49a7.62,7.62,0,0,1-5,14.4l-7.2-2.5A7.62,7.62,0,0,1,341.46,229.15Z"/><path class="cls-2" d="M355.85,243.66a9.51,9.51,0,0,1-3.12-.53l-7.19-2.49a9.52,9.52,0,1,1,6.24-18l7.19,2.49a9.52,9.52,0,0,1-3.12,18.52Zm-7.19-17.73a5.71,5.71,0,0,0-5.14,8.21,5.64,5.64,0,0,0,3.27,2.9l7.19,2.5a5.71,5.71,0,0,0,3.74-10.8l-7.19-2.49A5.74,5.74,0,0,0,348.66,225.93Z"/><path class="cls-1" d="M342.45,248.63A7.62,7.62,0,0,1,352.9,246l6.53,3.91A7.62,7.62,0,1,1,351.61,263l-6.54-3.91A7.62,7.62,0,0,1,342.45,248.63Z"/><path class="cls-2" d="M355.51,266a9.57,9.57,0,0,1-4.88-1.35l-6.53-3.91a9.52,9.52,0,0,1,9.78-16.34l6.53,3.91a9.53,9.53,0,0,1,3.28,13.06A9.59,9.59,0,0,1,355.51,266ZM349,246.82a5.73,5.73,0,0,0-5.55,7.11,5.72,5.72,0,0,0,2.61,3.51l6.54,3.91a5.71,5.71,0,1,0,5.86-9.8l-6.53-3.91A5.64,5.64,0,0,0,349,246.82Z"/><path class="cls-1" d="M382.72,321.79V306.56c0-11.9-15.23-15.24-15.23-30.47h22.85a22.83,22.83,0,0,1,22.84-22.85V238l-5.38-5.39a15.23,15.23,0,0,1,0-21.54l20.62,20.62v90.09Z"/><path class="cls-2" d="M436,338.93H375.1a1.91,1.91,0,0,1-1.9-1.91V321.79a1.91,1.91,0,0,1,1.9-1.91H436a1.92,1.92,0,0,1,1.91,1.91V337A1.92,1.92,0,0,1,436,338.93Zm-59-3.81h57.12V323.69H377Z"/><path class="cls-2" d="M413.18,338.93a1.91,1.91,0,0,1-1.9-1.91V321.79a1.91,1.91,0,1,1,3.81,0V337A1.91,1.91,0,0,1,413.18,338.93Z"/><path class="cls-2" d="M436,377a1.91,1.91,0,0,1-1.9-1.91V337a1.91,1.91,0,0,1,3.81,0V375.1A1.92,1.92,0,0,1,436,377Z"/><path class="cls-2" d="M375.1,377a1.91,1.91,0,0,1-1.9-1.91V337a1.91,1.91,0,0,1,3.81,0V375.1A1.92,1.92,0,0,1,375.1,377Z"/><path class="cls-2" d="M428.42,323.69a1.91,1.91,0,0,1-1.91-1.9v-89.3l-18.62-18.62a13.33,13.33,0,0,0,1.26,17.41l5.38,5.38a1.9,1.9,0,0,1,.56,1.35v15.23a1.91,1.91,0,0,1-1.91,1.91,21,21,0,0,0-20.94,20.94,1.91,1.91,0,0,1-1.9,1.91H369.48c.59,6.2,4.07,10,7.74,14.07s7.4,8.17,7.4,14.49v15.23a1.9,1.9,0,1,1-3.8,0V306.56c0-4.85-3-8.13-6.42-11.93-4.14-4.56-8.82-9.72-8.82-18.54a1.91,1.91,0,0,1,1.91-1.9h21a24.8,24.8,0,0,1,22.78-22.78V238.8L406.45,234a17.13,17.13,0,0,1,0-24.23,1.9,1.9,0,0,1,2.7,0l20.61,20.62a1.88,1.88,0,0,1,.56,1.34v90.09A1.9,1.9,0,0,1,428.42,323.69Z"/><path class="cls-2" d="M1098.65,377H1.9a1.91,1.91,0,0,1,0-3.81H1098.65a1.91,1.91,0,1,1,0,3.81Z"/><circle class="cls-1" cx="93.3" cy="344.64" r="15.23"/><path class="cls-2" d="M93.3,377a1.91,1.91,0,0,1-1.9-1.91V352.25a1.9,1.9,0,0,1,3.8,0V375.1A1.91,1.91,0,0,1,93.3,377Z"/><path class="cls-2" d="M93.3,361.77a17.14,17.14,0,1,1,17.14-17.13A17.15,17.15,0,0,1,93.3,361.77Zm0-30.46a13.33,13.33,0,1,0,13.33,13.33A13.35,13.35,0,0,0,93.3,331.31Z"/><path class="cls-1" d="M262.9,95.07a19,19,0,0,0-13.47-5.58v19Z"/><path class="cls-1" d="M249.43,89.49A19,19,0,1,0,262.9,122l-13.47-13.47Z"/><path class="cls-1" d="M262.9,95.07l-13.47,13.46L262.9,122a19.06,19.06,0,0,0,0-26.93Z"/><path class="cls-2" d="M249.43,129.48a20.95,20.95,0,1,1,20.95-20.95A21,21,0,0,1,249.43,129.48Zm0-38.08a17.14,17.14,0,1,0,17.14,17.13A17.15,17.15,0,0,0,249.43,91.4Z"/><path class="cls-2" d="M249.43,110.44a1.91,1.91,0,0,1-1.9-1.91v-19a1.91,1.91,0,0,1,3.81,0v19A1.91,1.91,0,0,1,249.43,110.44Z"/><path class="cls-2" d="M249.43,110.44a1.91,1.91,0,0,1-1.34-3.25l13.46-13.47a1.9,1.9,0,0,1,2.69,2.69l-13.46,13.47A1.91,1.91,0,0,1,249.43,110.44Z"/><path class="cls-2" d="M262.9,123.9a1.91,1.91,0,0,1-1.35-.56l-13.46-13.46a1.9,1.9,0,0,1,2.69-2.69l13.46,13.46a1.91,1.91,0,0,1-1.34,3.25Z"/><rect class="cls-1" x="771.15" y="111.69" width="38.08" height="22.85"/><path class="cls-2" d="M809.23,136.44H771.15a1.9,1.9,0,0,1-1.9-1.9V111.69a1.9,1.9,0,0,1,1.9-1.91h38.08a1.91,1.91,0,0,1,1.91,1.91v22.85A1.91,1.91,0,0,1,809.23,136.44Zm-36.17-3.81h34.27v-19H773.06Z"/><path class="cls-2" d="M771.15,136.44a1.9,1.9,0,0,1-1.19-3.39l14.28-11.43a1.91,1.91,0,0,1,2.38,3L772.34,136A1.9,1.9,0,0,1,771.15,136.44Z"/><path class="cls-2" d="M809.23,136.44A1.9,1.9,0,0,1,808,136L793.76,124.6a1.91,1.91,0,1,1,2.38-3l14.28,11.43a1.9,1.9,0,0,1-1.19,3.39Z"/><path class="cls-2" d="M785.43,125a1.89,1.89,0,0,1-1.19-.41L770,113.17a1.9,1.9,0,1,1,2.38-3l14.28,11.42a1.9,1.9,0,0,1-1.19,3.39Z"/><path class="cls-2" d="M795,125a1.9,1.9,0,0,1-1.19-3.39L808,110.2a1.9,1.9,0,1,1,2.38,3L796.14,124.6A1.89,1.89,0,0,1,795,125Z"/><path class="cls-2" d="M790.19,128.82a2,2,0,0,1-1.19-.41l-4.76-3.81a1.91,1.91,0,1,1,2.38-3l3.57,2.86,3.57-2.86a1.91,1.91,0,1,1,2.38,3l-4.76,3.81A2,2,0,0,1,790.19,128.82Z"/><path class="cls-2" d="M670.23,238a1.91,1.91,0,0,1,1.91-1.9h0A1.9,1.9,0,0,1,674,238h0a1.9,1.9,0,0,1-1.9,1.9h0A1.91,1.91,0,0,1,670.23,238Zm0-7.62a1.91,1.91,0,0,1,1.91-1.9h0a1.91,1.91,0,0,1,1.9,1.9h0a1.91,1.91,0,0,1-1.9,1.91h0A1.92,1.92,0,0,1,670.23,230.39Zm0-7.61a1.92,1.92,0,0,1,1.91-1.91h0a1.91,1.91,0,0,1,1.9,1.91h0a1.91,1.91,0,0,1-1.9,1.9h0A1.91,1.91,0,0,1,670.23,222.78Zm0-7.62a1.91,1.91,0,0,1,1.91-1.9h0a1.9,1.9,0,0,1,1.9,1.9h0a1.9,1.9,0,0,1-1.9,1.9h0A1.91,1.91,0,0,1,670.23,215.16Zm0-7.62a1.91,1.91,0,0,1,1.91-1.9h0a1.91,1.91,0,0,1,1.9,1.9h0a1.91,1.91,0,0,1-1.9,1.91h0A1.92,1.92,0,0,1,670.23,207.54Zm0-7.61a1.92,1.92,0,0,1,1.91-1.91h0a1.91,1.91,0,0,1,1.9,1.91h0a1.91,1.91,0,0,1-1.9,1.9h0A1.91,1.91,0,0,1,670.23,199.93Zm0-7.62a1.91,1.91,0,0,1,1.91-1.9h0a1.9,1.9,0,0,1,1.9,1.9h0a1.91,1.91,0,0,1-1.9,1.91h0A1.92,1.92,0,0,1,670.23,192.31Zm0-7.61a1.92,1.92,0,0,1,1.91-1.91h0a1.91,1.91,0,0,1,1.9,1.91h0a1.91,1.91,0,0,1-1.9,1.9h0A1.91,1.91,0,0,1,670.23,184.7Zm0-7.62a1.91,1.91,0,0,1,1.91-1.9h0a1.9,1.9,0,0,1,1.9,1.9h0a1.9,1.9,0,0,1-1.9,1.9h0A1.91,1.91,0,0,1,670.23,177.08Z"/><path class="cls-2" d="M990.12,161.85a1.91,1.91,0,0,1,1.9-1.91h0a1.92,1.92,0,0,1,1.91,1.91h0a1.91,1.91,0,0,1-1.91,1.9h0A1.91,1.91,0,0,1,990.12,161.85Zm0-7.62a1.91,1.91,0,0,1,1.9-1.9h0a1.91,1.91,0,0,1,1.91,1.9h0a1.91,1.91,0,0,1-1.91,1.9h0A1.91,1.91,0,0,1,990.12,154.23Zm0-7.62a1.91,1.91,0,0,1,1.9-1.9h0a1.91,1.91,0,0,1,1.91,1.9h0a1.92,1.92,0,0,1-1.91,1.91h0A1.91,1.91,0,0,1,990.12,146.61Zm0-7.61a1.91,1.91,0,0,1,1.9-1.91h0a1.92,1.92,0,0,1,1.91,1.91h0a1.91,1.91,0,0,1-1.91,1.9h0A1.91,1.91,0,0,1,990.12,139Zm0-7.62a1.91,1.91,0,0,1,1.9-1.9h0a1.91,1.91,0,0,1,1.91,1.9h0a1.92,1.92,0,0,1-1.91,1.91h0A1.91,1.91,0,0,1,990.12,131.38Zm0-7.62a1.91,1.91,0,0,1,1.9-1.9h0a1.91,1.91,0,0,1,1.91,1.9h0a1.92,1.92,0,0,1-1.91,1.91h0A1.91,1.91,0,0,1,990.12,123.76Zm0-7.61a1.91,1.91,0,0,1,1.9-1.91h0a1.92,1.92,0,0,1,1.91,1.91h0a1.91,1.91,0,0,1-1.91,1.9h0A1.91,1.91,0,0,1,990.12,116.15Zm0-7.62a1.91,1.91,0,0,1,1.9-1.9h0a1.91,1.91,0,0,1,1.91,1.9h0a1.92,1.92,0,0,1-1.91,1.91h0A1.91,1.91,0,0,1,990.12,108.53Z"/><path class="cls-2" d="M1028.2,161.85a1.92,1.92,0,0,1,1.91-1.91h0a1.91,1.91,0,0,1,1.9,1.91h0a1.91,1.91,0,0,1-1.9,1.9h0A1.91,1.91,0,0,1,1028.2,161.85Zm0-7.62a1.91,1.91,0,0,1,1.91-1.9h0a1.91,1.91,0,0,1,1.9,1.9h0a1.91,1.91,0,0,1-1.9,1.9h0A1.91,1.91,0,0,1,1028.2,154.23Z"/><path class="cls-1" d="M687.37,131.38c0,8.41-15.23,38.08-15.23,38.08s-15.23-29.67-15.23-38.08a15.23,15.23,0,0,1,30.46,0Z"/><path class="cls-2" d="M672.14,171.37a1.88,1.88,0,0,1-1.69-1c-1.59-3.08-15.45-30.33-15.45-39a17.14,17.14,0,0,1,34.28,0c0,8.62-13.87,35.87-15.45,39A1.89,1.89,0,0,1,672.14,171.37Zm0-53.32a13.35,13.35,0,0,0-13.33,13.33c0,5.77,8.48,24.06,13.33,33.85,4.85-9.79,13.33-28.08,13.33-33.85A13.35,13.35,0,0,0,672.14,118.05Z"/><circle class="cls-1" cx="672.14" cy="131.38" r="3.81"/><path class="cls-2" d="M672.14,137.09a5.71,5.71,0,1,1,5.71-5.71A5.71,5.71,0,0,1,672.14,137.09Zm0-7.61a1.91,1.91,0,1,0,1.9,1.9A1.91,1.91,0,0,0,672.14,129.48Z"/><path class="cls-1" d="M969.17,17.14c0,8.41-15.23,38.08-15.23,38.08s-15.23-29.67-15.23-38.08a15.23,15.23,0,1,1,30.46,0Z"/><path class="cls-2" d="M953.94,57.12a1.9,1.9,0,0,1-1.69-1c-1.58-3.08-15.44-30.33-15.44-38.95a17.14,17.14,0,1,1,34.27,0c0,8.62-13.86,35.87-15.44,39A1.92,1.92,0,0,1,953.94,57.12Zm0-53.31a13.35,13.35,0,0,0-13.33,13.33c0,5.76,8.48,24.06,13.33,33.85,4.85-9.79,13.33-28.09,13.33-33.85A13.35,13.35,0,0,0,953.94,3.81Z"/><circle class="cls-1" cx="953.94" cy="17.14" r="3.81"/><path class="cls-2" d="M953.94,22.85a5.72,5.72,0,1,1,5.71-5.71A5.71,5.71,0,0,1,953.94,22.85Zm0-7.62a1.91,1.91,0,1,0,1.91,1.91A1.91,1.91,0,0,0,953.94,15.23Z"/><path class="cls-1" d="M199.93,17.14c0,8.41-15.23,38.08-15.23,38.08s-15.24-29.67-15.24-38.08a15.24,15.24,0,1,1,30.47,0Z"/><path class="cls-2" d="M184.7,57.12a1.92,1.92,0,0,1-1.7-1c-1.58-3.08-15.44-30.33-15.44-38.95a17.14,17.14,0,1,1,34.27,0c0,8.62-13.86,35.87-15.44,39A1.91,1.91,0,0,1,184.7,57.12Zm0-53.31a13.35,13.35,0,0,0-13.33,13.33c0,5.76,8.47,24.06,13.33,33.85C189.55,41.2,198,22.9,198,17.14A13.34,13.34,0,0,0,184.7,3.81Z"/><circle class="cls-1" cx="184.7" cy="17.14" r="3.81"/><path class="cls-2" d="M184.7,22.85a5.72,5.72,0,1,1,5.71-5.71A5.72,5.72,0,0,1,184.7,22.85Zm0-7.62a1.91,1.91,0,1,0,1.9,1.91A1.92,1.92,0,0,0,184.7,15.23Z"/><path class="cls-1" d="M992,83.14a8.88,8.88,0,1,1,0-17.76V47.6a26.66,26.66,0,1,0,18.85,45.51L998.3,80.54A8.81,8.81,0,0,1,992,83.14Z"/><path class="cls-1" d="M998.3,68l12.57-12.57A26.57,26.57,0,0,0,992,47.6V65.38A8.81,8.81,0,0,1,998.3,68Z"/><path class="cls-1" d="M1010.87,55.41,998.3,68a8.86,8.86,0,0,1,0,12.56l12.57,12.57a26.65,26.65,0,0,0,0-37.7Z"/><path class="cls-2" d="M992,102.82a28.56,28.56,0,1,1,28.56-28.56A28.59,28.59,0,0,1,992,102.82Zm0-53.31a24.75,24.75,0,1,0,24.76,24.75A24.78,24.78,0,0,0,992,49.51Z"/><path class="cls-2" d="M992,85.05a10.79,10.79,0,1,1,10.79-10.79A10.8,10.8,0,0,1,992,85.05Zm0-17.77a7,7,0,1,0,7,7A7,7,0,0,0,992,67.28Z"/><path class="cls-2" d="M992,67.28a1.9,1.9,0,0,1-1.9-1.9V47.6a1.91,1.91,0,0,1,3.81,0V65.38A1.9,1.9,0,0,1,992,67.28Z"/><path class="cls-2" d="M998.3,69.88A1.91,1.91,0,0,1,997,66.63l12.57-12.57a1.9,1.9,0,0,1,2.69,2.69L999.65,69.32A1.91,1.91,0,0,1,998.3,69.88Z"/><path class="cls-2" d="M1010.87,95a1.89,1.89,0,0,1-1.34-.55L997,81.89a1.91,1.91,0,0,1,2.69-2.7l12.57,12.57a1.92,1.92,0,0,1,0,2.7A1.9,1.9,0,0,1,1010.87,95Z"/><path class="cls-1" d="M500.77,226.79V223l-8-1.71a18.64,18.64,0,0,0-.7-2.59l6-5.47-1.9-3.3-7.77,2.51a18.93,18.93,0,0,0-1.9-1.9l2.51-7.77-3.3-1.9-5.46,6.05a19.16,19.16,0,0,0-2.6-.7l-1.71-8h-3.81l-1.71,8a19.16,19.16,0,0,0-2.6.7l-5.46-6.05-3.3,1.9,2.51,7.77a18.93,18.93,0,0,0-1.9,1.9L452,209.91l-1.9,3.3,6.05,5.47a18.64,18.64,0,0,0-.7,2.59l-8,1.71v3.81l8,1.71a19.16,19.16,0,0,0,.7,2.6l-6.05,5.47,1.9,3.29,7.77-2.51a18.93,18.93,0,0,0,1.9,1.9L459.14,247l3.3,1.9,5.46-6a19.16,19.16,0,0,0,2.6.7l1.71,8H476l1.71-8a19.16,19.16,0,0,0,2.6-.7l5.46,6,3.3-1.9-2.51-7.77a17.94,17.94,0,0,0,1.9-1.9l7.77,2.51,1.9-3.29-6-5.47a19.16,19.16,0,0,0,.7-2.6Z"/><path class="cls-2" d="M476,253.45h-3.81a1.9,1.9,0,0,1-1.86-1.51l-1.45-6.78-.4-.11-4.65,5.15a1.92,1.92,0,0,1-2.37.37l-3.3-1.9a1.92,1.92,0,0,1-.86-2.23l2.14-6.62a3.7,3.7,0,0,1-.28-.28l-6.61,2.14a1.93,1.93,0,0,1-2.24-.86l-1.9-3.3a1.9,1.9,0,0,1,.37-2.37L454,230.5c0-.13-.08-.26-.11-.4l-6.78-1.45a1.9,1.9,0,0,1-1.51-1.86V223a1.9,1.9,0,0,1,1.51-1.86l6.78-1.45c0-.13.07-.27.11-.4l-5.15-4.65a1.9,1.9,0,0,1-.37-2.37l1.9-3.29a1.91,1.91,0,0,1,2.24-.86l6.61,2.13.28-.28-2.13-6.61a1.9,1.9,0,0,1,.86-2.24l3.29-1.9a1.92,1.92,0,0,1,2.37.37l4.65,5.15.4-.11,1.45-6.78a1.9,1.9,0,0,1,1.86-1.5H476a1.9,1.9,0,0,1,1.86,1.5l1.45,6.78.4.11,4.65-5.15a1.92,1.92,0,0,1,2.37-.37l3.29,1.9a1.9,1.9,0,0,1,.86,2.24L488.77,210l.28.28,6.61-2.13a1.91,1.91,0,0,1,2.24.86l1.9,3.3a1.9,1.9,0,0,1-.37,2.36l-5.15,4.65c0,.13.08.26.11.4l6.78,1.45a1.9,1.9,0,0,1,1.51,1.86v3.81a1.9,1.9,0,0,1-1.51,1.86l-6.78,1.45c0,.14-.07.27-.11.4l5.15,4.65a1.9,1.9,0,0,1,.37,2.37l-1.9,3.29a1.91,1.91,0,0,1-2.24.86l-6.61-2.13-.28.29,2.13,6.6a1.9,1.9,0,0,1-.86,2.24l-3.29,1.9a1.9,1.9,0,0,1-2.37-.37l-4.65-5.15-.4.11-1.45,6.78A1.9,1.9,0,0,1,476,253.45Zm-2.27-3.81h.73l1.38-6.47a1.93,1.93,0,0,1,1.51-1.47,15.92,15.92,0,0,0,2.33-.63,1.9,1.9,0,0,1,2,.52l4.44,4.92.63-.37-2-6.3a1.92,1.92,0,0,1,.57-2,17.05,17.05,0,0,0,1.7-1.7,1.9,1.9,0,0,1,2-.57l6.3,2,.36-.63-4.91-4.44a1.9,1.9,0,0,1-.52-2,15.92,15.92,0,0,0,.63-2.33,1.92,1.92,0,0,1,1.47-1.5l6.47-1.39v-.73l-6.47-1.38a1.93,1.93,0,0,1-1.47-1.51,15.92,15.92,0,0,0-.63-2.33,1.9,1.9,0,0,1,.52-2l4.91-4.43-.36-.64-6.3,2a1.93,1.93,0,0,1-2-.56,16.24,16.24,0,0,0-1.71-1.71,1.93,1.93,0,0,1-.56-2l2-6.3-.63-.36-4.44,4.91a1.91,1.91,0,0,1-2,.52,16.74,16.74,0,0,0-2.34-.63,1.93,1.93,0,0,1-1.51-1.47l-1.38-6.47h-.73l-1.38,6.47a1.93,1.93,0,0,1-1.51,1.47,16.74,16.74,0,0,0-2.34.63,1.91,1.91,0,0,1-2-.52l-4.44-4.91-.63.36,2,6.3a1.93,1.93,0,0,1-.56,2,16.24,16.24,0,0,0-1.71,1.71,1.93,1.93,0,0,1-2,.56l-6.3-2-.36.64,4.91,4.43a1.92,1.92,0,0,1,.52,2,16.26,16.26,0,0,0-.63,2.33,1.93,1.93,0,0,1-1.47,1.51l-6.47,1.38v.73l6.47,1.39a1.92,1.92,0,0,1,1.47,1.5,16.26,16.26,0,0,0,.63,2.33,1.92,1.92,0,0,1-.52,2L452.5,237l.36.63,6.3-2a1.92,1.92,0,0,1,2,.57,17.05,17.05,0,0,0,1.7,1.7,1.92,1.92,0,0,1,.57,2l-2,6.3.63.37,4.44-4.92a1.9,1.9,0,0,1,2-.52,15.92,15.92,0,0,0,2.33.63,1.93,1.93,0,0,1,1.51,1.47Z"/><path class="cls-1" d="M481.73,224.89a7.62,7.62,0,1,1-7.61-7.62A7.61,7.61,0,0,1,481.73,224.89Z"/><path class="cls-2" d="M474.12,234.41a9.53,9.53,0,1,1,9.52-9.52A9.54,9.54,0,0,1,474.12,234.41Zm0-15.24a5.72,5.72,0,1,0,5.71,5.72A5.73,5.73,0,0,0,474.12,219.17Z"/><rect class="cls-1" x="1011.06" y="119.96" width="7.62" height="15.23"/><rect class="cls-1" x="1026.3" y="108.53" width="7.62" height="26.66"/><rect class="cls-1" x="1041.53" y="97.11" width="7.62" height="38.08"/><path class="cls-2" d="M1049.15,144.71h-38.09a1.91,1.91,0,0,1,0-3.81h38.09a1.91,1.91,0,0,1,0,3.81Z"/><path class="cls-2" d="M1018.68,137.09h-7.62a1.9,1.9,0,0,1-1.9-1.9V120a1.91,1.91,0,0,1,1.9-1.91h7.62a1.91,1.91,0,0,1,1.9,1.91v15.23A1.9,1.9,0,0,1,1018.68,137.09Zm-5.71-3.8h3.81V121.86H1013Z"/><path class="cls-2" d="M1033.91,137.09h-7.61a1.9,1.9,0,0,1-1.91-1.9V108.53a1.9,1.9,0,0,1,1.91-1.9h7.61a1.9,1.9,0,0,1,1.91,1.9v26.66A1.9,1.9,0,0,1,1033.91,137.09Zm-5.71-3.8H1032V110.44h-3.81Z"/><path class="cls-2" d="M1049.15,137.09h-7.62a1.9,1.9,0,0,1-1.9-1.9V97.11a1.91,1.91,0,0,1,1.9-1.91h7.62a1.91,1.91,0,0,1,1.9,1.91v38.08A1.9,1.9,0,0,1,1049.15,137.09Zm-5.72-3.8h3.81V99h-3.81Z"/><rect class="cls-1" x="352.25" y="78.07" width="68.55" height="45.7" rx="3.81" ry="3.81"/><rect class="cls-1" x="352.25" y="89.49" width="68.55" height="11.42"/><path class="cls-2" d="M417,125.67H356.06a5.71,5.71,0,0,1-5.71-5.71V81.88a5.72,5.72,0,0,1,5.71-5.72H417a5.72,5.72,0,0,1,5.71,5.72V120A5.71,5.71,0,0,1,417,125.67ZM356.06,80a1.91,1.91,0,0,0-1.9,1.91V120a1.9,1.9,0,0,0,1.9,1.9H417a1.91,1.91,0,0,0,1.91-1.9V81.88A1.92,1.92,0,0,0,417,80Z"/><path class="cls-2" d="M420.8,102.82H352.25a1.91,1.91,0,0,1,0-3.81H420.8a1.91,1.91,0,0,1,0,3.81Z"/><path class="cls-2" d="M420.8,91.4H352.25a1.91,1.91,0,0,1,0-3.81H420.8a1.91,1.91,0,0,1,0,3.81Z"/><path class="cls-2" d="M390.34,114.24H359.87a1.9,1.9,0,0,1,0-3.8h30.47a1.9,1.9,0,1,1,0,3.8Z"/><path class="cls-2" d="M413.18,114.24h-7.61a1.9,1.9,0,1,1,0-3.8h7.61a1.9,1.9,0,1,1,0,3.8Z"/><path class="cls-2" d="M384.62,146.61a1.91,1.91,0,0,1,1.91-1.9h0a1.91,1.91,0,0,1,1.9,1.9h0a1.91,1.91,0,0,1-1.9,1.91h0A1.92,1.92,0,0,1,384.62,146.61Zm0-7.61a1.92,1.92,0,0,1,1.91-1.91h0a1.91,1.91,0,0,1,1.9,1.91h0a1.91,1.91,0,0,1-1.9,1.9h0A1.91,1.91,0,0,1,384.62,139Zm0-7.62a1.91,1.91,0,0,1,1.91-1.9h0a1.91,1.91,0,0,1,1.9,1.9h0a1.91,1.91,0,0,1-1.9,1.91h0A1.92,1.92,0,0,1,384.62,131.38Z"/><polygon class="cls-1" points="116.15 70.45 116.15 108.53 146.61 108.53 154.23 116.15 154.23 108.53 169.46 108.53 169.46 70.45 116.15 70.45"/><path class="cls-2" d="M154.23,87.59H131.38a1.91,1.91,0,0,1,0-3.81h22.85a1.91,1.91,0,0,1,0,3.81Z"/><path class="cls-2" d="M154.23,95.2H131.38a1.9,1.9,0,0,1,0-3.8h22.85a1.9,1.9,0,1,1,0,3.8Z"/><path class="cls-2" d="M154.23,118.05a1.89,1.89,0,0,1-1.35-.56l-7-7H116.15a1.92,1.92,0,0,1-1.91-1.91V70.45a1.91,1.91,0,0,1,1.91-1.9h53.31a1.91,1.91,0,0,1,1.91,1.9v38.08a1.92,1.92,0,0,1-1.91,1.91H156.13v5.71a1.91,1.91,0,0,1-1.17,1.76A1.86,1.86,0,0,1,154.23,118.05Zm-36.18-11.42h28.56a1.9,1.9,0,0,1,1.35.56l4.37,4.36v-3a1.9,1.9,0,0,1,1.9-1.9h13.33V72.35H118.05Z"/><path class="cls-2" d="M152.33,139a1.91,1.91,0,0,1,1.9-1.91h0a1.91,1.91,0,0,1,1.9,1.91h0a1.91,1.91,0,0,1-1.9,1.9h0A1.91,1.91,0,0,1,152.33,139Zm0-7.62a1.9,1.9,0,0,1,1.9-1.9h0a1.9,1.9,0,0,1,1.9,1.9h0a1.91,1.91,0,0,1-1.9,1.91h0A1.91,1.91,0,0,1,152.33,131.38Zm0-7.62a1.91,1.91,0,0,1,1.9-1.9h0a1.91,1.91,0,0,1,1.9,1.9h0a1.91,1.91,0,0,1-1.9,1.91h0A1.91,1.91,0,0,1,152.33,123.76Z"/><path class="cls-2" d="M182.79,139a1.92,1.92,0,0,1,1.91-1.91h0a1.91,1.91,0,0,1,1.9,1.91h0a1.91,1.91,0,0,1-1.9,1.9h0A1.91,1.91,0,0,1,182.79,139Zm0-7.62a1.91,1.91,0,0,1,1.91-1.9h0a1.91,1.91,0,0,1,1.9,1.9h0a1.91,1.91,0,0,1-1.9,1.91h0A1.92,1.92,0,0,1,182.79,131.38Zm0-7.62a1.91,1.91,0,0,1,1.91-1.9h0a1.91,1.91,0,0,1,1.9,1.9h0a1.91,1.91,0,0,1-1.9,1.91h0A1.92,1.92,0,0,1,182.79,123.76Zm0-7.61a1.92,1.92,0,0,1,1.91-1.91h0a1.91,1.91,0,0,1,1.9,1.91h0a1.91,1.91,0,0,1-1.9,1.9h0A1.91,1.91,0,0,1,182.79,116.15Zm0-7.62a1.91,1.91,0,0,1,1.91-1.9h0a1.91,1.91,0,0,1,1.9,1.9h0a1.91,1.91,0,0,1-1.9,1.91h0A1.92,1.92,0,0,1,182.79,108.53Zm0-7.61A1.92,1.92,0,0,1,184.7,99h0a1.91,1.91,0,0,1,1.9,1.91h0a1.91,1.91,0,0,1-1.9,1.9h0A1.91,1.91,0,0,1,182.79,100.92Zm0-7.62a1.91,1.91,0,0,1,1.91-1.9h0a1.91,1.91,0,0,1,1.9,1.9h0a1.91,1.91,0,0,1-1.9,1.9h0A1.91,1.91,0,0,1,182.79,93.3Zm0-7.62a1.91,1.91,0,0,1,1.91-1.9h0a1.91,1.91,0,0,1,1.9,1.9h0a1.91,1.91,0,0,1-1.9,1.91h0A1.92,1.92,0,0,1,182.79,85.68Zm0-7.61a1.92,1.92,0,0,1,1.91-1.91h0a1.91,1.91,0,0,1,1.9,1.91h0a1.91,1.91,0,0,1-1.9,1.9h0A1.91,1.91,0,0,1,182.79,78.07Zm0-7.62a1.91,1.91,0,0,1,1.91-1.9h0a1.91,1.91,0,0,1,1.9,1.9h0a1.91,1.91,0,0,1-1.9,1.9h0A1.91,1.91,0,0,1,182.79,70.45Zm0-7.62a1.91,1.91,0,0,1,1.91-1.9h0a1.91,1.91,0,0,1,1.9,1.9h0a1.91,1.91,0,0,1-1.9,1.91h0A1.92,1.92,0,0,1,182.79,62.83Zm0-7.61a1.92,1.92,0,0,1,1.91-1.91h0a1.91,1.91,0,0,1,1.9,1.91h0a1.91,1.91,0,0,1-1.9,1.9h0A1.91,1.91,0,0,1,182.79,55.22Z"/><path class="cls-2" d="M952,161.85a1.91,1.91,0,0,1,1.9-1.91h0a1.92,1.92,0,0,1,1.91,1.91h0a1.91,1.91,0,0,1-1.91,1.9h0A1.91,1.91,0,0,1,952,161.85Zm0-7.62a1.91,1.91,0,0,1,1.9-1.9h0a1.91,1.91,0,0,1,1.91,1.9h0a1.91,1.91,0,0,1-1.91,1.9h0A1.91,1.91,0,0,1,952,154.23Zm0-7.62a1.91,1.91,0,0,1,1.9-1.9h0a1.91,1.91,0,0,1,1.91,1.9h0a1.92,1.92,0,0,1-1.91,1.91h0A1.91,1.91,0,0,1,952,146.61Zm0-7.61a1.91,1.91,0,0,1,1.9-1.91h0a1.92,1.92,0,0,1,1.91,1.91h0a1.91,1.91,0,0,1-1.91,1.9h0A1.91,1.91,0,0,1,952,139Zm0-7.62a1.91,1.91,0,0,1,1.9-1.9h0a1.91,1.91,0,0,1,1.91,1.9h0a1.92,1.92,0,0,1-1.91,1.91h0A1.91,1.91,0,0,1,952,131.38Zm0-7.62a1.91,1.91,0,0,1,1.9-1.9h0a1.91,1.91,0,0,1,1.91,1.9h0a1.92,1.92,0,0,1-1.91,1.91h0A1.91,1.91,0,0,1,952,123.76Zm0-7.61a1.91,1.91,0,0,1,1.9-1.91h0a1.92,1.92,0,0,1,1.91,1.91h0a1.91,1.91,0,0,1-1.91,1.9h0A1.91,1.91,0,0,1,952,116.15Zm0-7.62a1.91,1.91,0,0,1,1.9-1.9h0a1.91,1.91,0,0,1,1.91,1.9h0a1.92,1.92,0,0,1-1.91,1.91h0A1.91,1.91,0,0,1,952,108.53Zm0-7.61a1.91,1.91,0,0,1,1.9-1.91h0a1.92,1.92,0,0,1,1.91,1.91h0a1.91,1.91,0,0,1-1.91,1.9h0A1.91,1.91,0,0,1,952,100.92Zm0-7.62a1.91,1.91,0,0,1,1.9-1.9h0a1.91,1.91,0,0,1,1.91,1.9h0a1.91,1.91,0,0,1-1.91,1.9h0A1.91,1.91,0,0,1,952,93.3Zm0-7.62a1.91,1.91,0,0,1,1.9-1.9h0a1.91,1.91,0,0,1,1.91,1.9h0a1.92,1.92,0,0,1-1.91,1.91h0A1.91,1.91,0,0,1,952,85.68Zm0-7.61a1.91,1.91,0,0,1,1.9-1.91h0a1.92,1.92,0,0,1,1.91,1.91h0a1.91,1.91,0,0,1-1.91,1.9h0A1.91,1.91,0,0,1,952,78.07Zm0-7.62a1.91,1.91,0,0,1,1.9-1.9h0a1.91,1.91,0,0,1,1.91,1.9h0a1.91,1.91,0,0,1-1.91,1.9h0A1.91,1.91,0,0,1,952,70.45Zm0-7.62a1.91,1.91,0,0,1,1.9-1.9h0a1.91,1.91,0,0,1,1.91,1.9h0a1.92,1.92,0,0,1-1.91,1.91h0A1.91,1.91,0,0,1,952,62.83Z"/></g></g></svg>